<?xml version="1.0" encoding="UTF-8"?>
<!DOCTYPE svg PUBLIC "-//W3C//DTD SVG 1.1//EN" "http://www.w3.org/Graphics/SVG/1.1/DTD/svg11.dtd">
<!-- Creator: CorelDRAW (Evaluation Version) -->
<svg xmlns="http://www.w3.org/2000/svg" xml:space="preserve" width="1901px" height="1620px" version="1.1" shape-rendering="geometricPrecision" text-rendering="geometricPrecision" image-rendering="optimizeQuality" fill-rule="evenodd" clip-rule="evenodd"
viewBox="0 0 190100 161978"
 xmlns:xlink="http://www.w3.org/1999/xlink"
 xmlns:xodm="http://www.corel.com/coreldraw/odm/2003">
 <g id="OBJECTS">
  <metadata id="CorelCorpID_0Corel-Layer"/>
  <path fill="#7C3AED" fill-rule="nonzero" d="M190100 80508c0,4470 -3623,8093 -8093,8093 -4469,0 -8092,-3623 -8092,-8093 0,-4469 3623,-8092 8092,-8092 4470,0 8093,3623 8093,8092z"/>
  <path fill="#7C3AED" fill-rule="nonzero" d="M13433 33910c0,2889 -2342,5231 -5231,5231 -2889,0 -5231,-2342 -5231,-5231 0,-2889 2342,-5231 5231,-5231 2889,0 5231,2342 5231,5231z"/>
  <path fill="#E6E7E8" fill-rule="nonzero" d="M181829 16998c0,8956 -7260,16216 -16216,16216 -8956,0 -16216,-7260 -16216,-16216 0,-8956 7260,-16216 16216,-16216 8956,0 16216,7260 16216,16216z"/>
  <path fill="#E6E7E8" fill-rule="nonzero" d="M18200 161751l147781 0c6656,-4443 16125,-9553 19671,-19909 8395,-24523 -11374,-33251 -22140,-45405 -10765,-12154 11512,-17187 8533,-43357 -1532,-13462 -19523,-25764 -37923,-19294 -18400,6470 -21070,-1230 -29599,-16923 -9914,-18244 -52267,-28139 -76819,4647 -24552,32787 -868,57630 -3645,69355 -2776,11725 -22559,17769 -23971,40335 -819,13075 4014,24779 18112,30551z"/>
  <polygon fill="none" fill-rule="nonzero" stroke="#7C3AED" stroke-width="417" stroke-miterlimit="10" points="143515,161384 173030,161384 173030,91184 143515,91184 "/>
  <polygon fill="none" fill-rule="nonzero" stroke="#7C3AED" stroke-width="417" stroke-miterlimit="10" points="58875,161384 88390,161384 88390,65223 58875,65223 "/>
  <polygon fill="none" fill-rule="nonzero" stroke="#D4A5CF" stroke-width="417" stroke-miterlimit="10" points="16555,161384 46070,161384 46070,92326 16555,92326 "/>
  <polygon fill="none" fill-rule="nonzero" stroke="#7C3AED" stroke-width="417" stroke-miterlimit="10" points="101195,161384 130710,161384 130710,111901 101195,111901 "/>
  <polyline fill="none" stroke="#7C3AED" stroke-width="417" stroke-miterlimit="10" points="168874,58618 168877,57311 170987,56838 171548,58018 "/>
  <path fill="none" stroke="#7C3AED" stroke-width="417" stroke-miterlimit="10" d="M171548 58018c478,18 944,101 1389,242"/>
  <polyline fill="none" stroke="#7C3AED" stroke-width="417" stroke-miterlimit="10" points="172937,58260 173864,57337 175691,58495 175252,59726 "/>
  <path fill="none" stroke="#7C3AED" stroke-width="417" stroke-miterlimit="10" d="M175252 59726c317,343 592,730 812,1153"/>
  <polyline fill="none" stroke="#7C3AED" stroke-width="417" stroke-miterlimit="10" points="176064,60879 177371,60882 177845,62993 176664,63553 "/>
  <path fill="none" stroke="#7C3AED" stroke-width="417" stroke-miterlimit="10" d="M176664 63553c-19,478 -101,944 -242,1389"/>
  <polyline fill="none" stroke="#7C3AED" stroke-width="417" stroke-miterlimit="10" points="176422,64942 177345,65869 176187,67696 174956,67257 "/>
  <path fill="none" stroke="#7C3AED" stroke-width="417" stroke-miterlimit="10" d="M174956 67257c-343,318 -729,592 -1153,813"/>
  <polyline fill="none" stroke="#7C3AED" stroke-width="417" stroke-miterlimit="10" points="173803,68070 173800,69376 171689,69850 171129,68669 "/>
  <path fill="none" stroke="#7C3AED" stroke-width="417" stroke-miterlimit="10" d="M171129 68669c-478,-18 -944,-101 -1389,-242"/>
  <polyline fill="none" stroke="#7C3AED" stroke-width="417" stroke-miterlimit="10" points="169740,68427 168813,69350 166986,68192 167425,66961 "/>
  <path fill="none" stroke="#7C3AED" stroke-width="417" stroke-miterlimit="10" d="M167425 66961c-317,-343 -592,-729 -812,-1153"/>
  <polyline fill="none" stroke="#D4A5CF" stroke-width="417" stroke-miterlimit="10" points="166613,65808 165306,65805 164832,63695 166013,63134 "/>
  <path fill="none" stroke="#7C3AED" stroke-width="417" stroke-miterlimit="10" d="M166013 63134c18,-478 101,-944 242,-1389"/>
  <polyline fill="none" stroke="#D4A5CF" stroke-width="417" stroke-miterlimit="10" points="166255,61745 165332,60818 166490,58991 167722,59430 "/>
  <path fill="none" stroke="#7C3AED" stroke-width="417" stroke-miterlimit="10" d="M167722 59430c342,-317 729,-592 1152,-812"/>
  <path fill="none" stroke="#7C3AED" stroke-width="417" stroke-miterlimit="10" d="M168979 63873c280,1250 1521,2037 2772,1756 1250,-280 2036,-1521 1756,-2772 -281,-1250 -1522,-2036 -2772,-1756 -1251,281 -2037,1521 -1756,2772z"/>
  <polyline fill="none" stroke="#D4A5CF" stroke-width="417" stroke-miterlimit="10" points="98189,80541 98193,79020 100650,78469 101303,79843 "/>
  <path fill="none" stroke="#D4A5CF" stroke-width="417" stroke-miterlimit="10" d="M101303 79843c556,21 1099,118 1617,282"/>
  <polyline fill="none" stroke="#D4A5CF" stroke-width="417" stroke-miterlimit="10" points="102920,80125 103999,79050 106126,80398 105616,81832 "/>
  <path fill="none" stroke="#D4A5CF" stroke-width="417" stroke-miterlimit="10" d="M105616 81832c369,399 689,849 945,1342"/>
  <polyline fill="none" stroke="#D4A5CF" stroke-width="417" stroke-miterlimit="10" points="106561,83174 108083,83177 108634,85635 107260,86288 "/>
  <path fill="none" stroke="#7C3AED" stroke-width="417" stroke-miterlimit="10" d="M107260 86288c-22,555 -119,1099 -282,1617"/>
  <polyline fill="none" stroke="#7C3AED" stroke-width="417" stroke-miterlimit="10" points="106978,87905 108052,88984 106704,91111 105270,90600 "/>
  <path fill="none" stroke="#7C3AED" stroke-width="417" stroke-miterlimit="10" d="M105270 90600c-399,370 -848,689 -1342,946"/>
  <polyline fill="none" stroke="#7C3AED" stroke-width="417" stroke-miterlimit="10" points="103928,91546 103925,93067 101467,93619 100815,92244 "/>
  <path fill="none" stroke="#7C3AED" stroke-width="417" stroke-miterlimit="10" d="M100815 92244c-556,-22 -1100,-118 -1618,-281"/>
  <polyline fill="none" stroke="#7C3AED" stroke-width="417" stroke-miterlimit="10" points="99197,91963 98119,93037 95992,91689 96502,90255 "/>
  <path fill="none" stroke="#7C3AED" stroke-width="417" stroke-miterlimit="10" d="M96502 90255c-369,-399 -689,-849 -946,-1342"/>
  <polyline fill="none" stroke="#7C3AED" stroke-width="417" stroke-miterlimit="10" points="95556,88913 94035,88909 93484,86452 94858,85799 "/>
  <path fill="none" stroke="#D4A5CF" stroke-width="417" stroke-miterlimit="10" d="M94858 85799c22,-555 118,-1099 282,-1617"/>
  <polyline fill="none" stroke="#D4A5CF" stroke-width="417" stroke-miterlimit="10" points="95140,84182 94066,83103 95414,80976 96848,81486 "/>
  <path fill="none" stroke="#D4A5CF" stroke-width="417" stroke-miterlimit="10" d="M96848 81486c398,-369 848,-688 1341,-945"/>
  <path fill="none" stroke="#7C3AED" stroke-width="417" stroke-miterlimit="10" d="M98311 86660c327,1456 1772,2371 3228,2045 1455,-327 2371,-1772 2044,-3228 -326,-1456 -1771,-2371 -3227,-2044 -1456,326 -2371,1771 -2045,3227z"/>
  <path fill="#7C3AED" d="M28986 32255l2 -1208 1951 -437 518 1090c441,18 873,94 1284,224l856 -853 1689 1070 -405 1139c293,316 547,674 750,1065l1208 3 438 1951 -1091 518c-18,441 -94,872 -224,1284l853 856 -1070 1689 -1138 -406c-317,294 -674,547 -1066,751l-2 1208 -1951 437 -518 -1091c-442,-17 -873,-93 -1284,-223l-857 852 -1688 -1070 405 -1138c-293,-316 -547,-674 -751,-1065l-1208 -3 -437 -1951 1091 -518c17,-441 94,-872 223,-1284l-852 -856 1070 -1689 1138 405c317,-293 674,-546 1066,-750zm96 4857l0 0c259,1156 1406,1883 2562,1623 1156,-259 1883,-1406 1623,-2562 -259,-1155 -1406,-1882 -2562,-1623 -1155,259 -1882,1406 -1623,2562z"/>
  <polyline fill="none" stroke="#7C3AED" stroke-width="417" stroke-miterlimit="10" points="19144,47891 19057,45386 23068,44329 24226,46551 "/>
  <path fill="none" stroke="#7C3AED" stroke-width="417" stroke-miterlimit="10" d="M24226 46551c916,2 1816,128 2679,365"/>
  <polyline fill="none" stroke="#7C3AED" stroke-width="417" stroke-miterlimit="10" points="26905,46916 28615,45082 32199,47171 31446,49562 "/>
  <path fill="none" stroke="#7C3AED" stroke-width="417" stroke-miterlimit="10" d="M31446 49562c632,634 1186,1356 1638,2152"/>
  <polyline fill="none" stroke="#7C3AED" stroke-width="417" stroke-miterlimit="10" points="33084,51714 35589,51626 36646,55638 34424,56796 "/>
  <path fill="none" stroke="#7C3AED" stroke-width="417" stroke-miterlimit="10" d="M34424 56796c-3,916 -128,1816 -365,2679"/>
  <polyline fill="none" stroke="#7C3AED" stroke-width="417" stroke-miterlimit="10" points="34059,59475 35893,61185 33804,64769 31412,64016 "/>
  <path fill="none" stroke="#7C3AED" stroke-width="417" stroke-miterlimit="10" d="M31412 64016c-634,632 -1355,1186 -2151,1638"/>
  <polyline fill="none" stroke="#7C3AED" stroke-width="417" stroke-miterlimit="10" points="29261,65654 29348,68159 25337,69216 24179,66993 "/>
  <path fill="none" stroke="#7C3AED" stroke-width="417" stroke-miterlimit="10" d="M24179 66993c-917,-1 -1817,-127 -2680,-364"/>
  <polyline fill="none" stroke="#7C3AED" stroke-width="417" stroke-miterlimit="10" points="21499,66629 19789,68462 16206,66374 16959,63982 "/>
  <path fill="none" stroke="#7C3AED" stroke-width="417" stroke-miterlimit="10" d="M16959 63982c-632,-633 -1186,-1355 -1639,-2151"/>
  <polyline fill="none" stroke="#7C3AED" stroke-width="417" stroke-miterlimit="10" points="15320,61831 12816,61918 11758,57907 13981,56749 "/>
  <path fill="none" stroke="#7C3AED" stroke-width="417" stroke-miterlimit="10" d="M13981 56749c2,-916 127,-1817 365,-2680"/>
  <polyline fill="none" stroke="#7C3AED" stroke-width="417" stroke-miterlimit="10" points="14346,54069 12512,52360 14601,48776 16992,49529 "/>
  <path fill="none" stroke="#7C3AED" stroke-width="417" stroke-miterlimit="10" d="M16992 49529c634,-632 1356,-1185 2152,-1638"/>
  <path fill="none" stroke="#7C3AED" stroke-width="417" stroke-miterlimit="10" d="M19717 57955c627,2376 3061,3795 5437,3168 2376,-626 3795,-3060 3169,-5436 -626,-2377 -3061,-3796 -5437,-3169 -2376,626 -3795,3060 -3169,5437z"/>
  <path fill="#7C3AED" fill-rule="nonzero" d="M187171 81590c-4848,-560 -9312,974 -12306,4924 -1516,1999 -2353,4231 -3300,6521 -448,1082 -983,2137 -1472,3201 -1406,3056 -2824,6106 -4218,9168 -766,1682 -1372,3321 -2546,4788 -1373,1716 -3183,3051 -5224,3865 -8952,3572 -19802,-1952 -24950,-9384 -2702,-3902 -6479,-6758 -11171,-7865 -4427,-1044 -9183,-453 -13214,1654 -3820,1996 -6724,5272 -8466,9190 -1340,3013 -2672,6029 -4008,9043 -1303,2943 -2454,6011 -4541,8510 -2877,3444 -7006,5661 -11450,6235 -4326,559 -8817,-415 -12480,-2796 -3460,-2249 -5919,-5652 -7237,-9539 -2107,-6217 -4182,-12445 -6274,-18668 -857,-2551 -1622,-5175 -2837,-7584 -2074,-4114 -5524,-7574 -10229,-8298 -4944,-761 -9894,1350 -13968,3974 -2797,1802 -5363,3960 -7739,6284 -1746,1709 -3219,3446 -5677,4086 -3040,792 -6174,-241 -8862,-1656 -355,-187 -671,352 -315,539 4366,2300 9646,3079 13448,-653 4594,-4508 9418,-9022 15645,-11136 4559,-1547 9563,-1317 13299,1984 2916,2576 4460,6162 5673,9772 2207,6566 4414,13132 6621,19697 915,2725 1900,5350 3692,7654 2635,3388 6442,5739 10628,6661 4097,902 8454,455 12261,-1317 4089,-1903 7251,-5295 9090,-9388 1213,-2701 2399,-5415 3598,-8122 1265,-2854 2371,-5960 4198,-8515 5850,-8183 17900,-9901 25836,-3742 1010,783 1933,1678 2757,2654 760,900 1333,1824 2057,2752 1522,1953 3332,3667 5348,5102 3758,2676 8315,4423 12952,4549 4134,112 8309,-1199 11218,-4230 2259,-2354 3284,-5516 4624,-8429 1443,-3138 2886,-6276 4330,-9414 852,-1853 1450,-3766 2538,-5515 1315,-2114 3094,-3949 5375,-5006 2283,-1058 4827,-1210 7296,-925 399,46 396,-579 0,-625z"/>
  <path fill="#7C3AED" fill-rule="nonzero" d="M120473 96708c0,1275 -1033,2308 -2308,2308 -1274,0 -2307,-1033 -2307,-2308 0,-1274 1033,-2307 2307,-2307 1275,0 2308,1033 2308,2307z"/>
  <path fill="#7C3AED" fill-rule="nonzero" d="M145659 113053c0,1275 -1033,2308 -2307,2308 -1275,0 -2308,-1033 -2308,-2308 0,-1274 1033,-2307 2308,-2307 1274,0 2307,1033 2307,2307z"/>
  <path fill="#D4A5CF" fill-rule="nonzero" d="M167921 107016c0,1275 -1034,2308 -2308,2308 -1274,0 -2308,-1033 -2308,-2308 0,-1274 1034,-2307 2308,-2307 1274,0 2308,1033 2308,2307z"/>
  <path fill="#7C3AED" fill-rule="nonzero" d="M175034 91184c0,1274 -1033,2307 -2308,2307 -1274,0 -2307,-1033 -2307,-2307 0,-1275 1033,-2308 2307,-2308 1275,0 2308,1033 2308,2308z"/>
  <path fill="#7C3AED" fill-rule="nonzero" d="M90235 128697c0,1275 -1033,2308 -2308,2308 -1274,0 -2307,-1033 -2307,-2308 0,-1274 1033,-2307 2307,-2307 1275,0 2308,1033 2308,2307z"/>
  <path fill="#7C3AED" fill-rule="nonzero" d="M103463 107016c0,1275 -1033,2308 -2308,2308 -1274,0 -2307,-1033 -2307,-2308 0,-1274 1033,-2307 2307,-2307 1275,0 2308,1033 2308,2307z"/>
  <path fill="#7C3AED" fill-rule="nonzero" d="M24947 92093c0,1274 -1033,2308 -2307,2308 -1275,0 -2308,-1034 -2308,-2308 0,-1274 1033,-2308 2308,-2308 1274,0 2307,1034 2307,2308z"/>
  <path fill="#7C3AED" fill-rule="nonzero" d="M27328 131346c-967,4407 387,8448 3025,9028 2638,579 5561,-2523 6529,-6930 967,-4406 -387,-8448 -3025,-9027 -2638,-579 -5561,2523 -6529,6929z"/>
  <path fill="#7C3AED" fill-rule="nonzero" d="M9723 149582c-562,2240 2440,4923 6705,5994 4265,1070 8178,123 8740,-2116 562,-2239 -2439,-4922 -6704,-5993 -4266,-1071 -8179,-124 -8741,2115z"/>
  <path fill="#7C3AED" fill-rule="nonzero" d="M2629 132168c-1082,2481 1451,5981 5660,7818 4208,1838 8498,1316 9581,-1164 1083,-2481 -1451,-5982 -5659,-7819 -4209,-1837 -8498,-1316 -9582,1165z"/>
  <path fill="#7C3AED" fill-rule="nonzero" d="M6087 118036c3017,6378 8385,10167 11989,8462 3603,-1705 4078,-8258 1060,-14636 -3017,-6378 -8385,-10167 -11989,-8462 -3603,1705 -4078,8258 -1060,14636z"/>
  <line fill="none" fill-rule="nonzero" stroke="white" stroke-width="417" stroke-miterlimit="10" x1="34282" y1="161782" x2="8042" y2= "103043" />
  <line fill="none" fill-rule="nonzero" stroke="white" stroke-width="417" stroke-miterlimit="10" x1="33716" y1="124331" x2="28397" y2= "148607" />
  <line fill="none" fill-rule="nonzero" stroke="white" stroke-width="417" stroke-miterlimit="10" x1="31275" y1="155049" x2="9815" y2= "149962" />
  <line fill="none" fill-rule="nonzero" stroke="white" stroke-width="417" stroke-miterlimit="10" x1="25345" y1="141777" x2="2593" y2= "132284" />
  <line fill="none" fill-rule="nonzero" stroke="white" stroke-width="417" stroke-miterlimit="10" x1="17057" y1="123222" x2="7735" y2= "120940" />
  <line fill="none" fill-rule="nonzero" stroke="white" stroke-width="417" stroke-miterlimit="10" x1="14437" y1="117126" x2="4845" y2= "114776" />
  <line fill="none" fill-rule="nonzero" stroke="white" stroke-width="417" stroke-miterlimit="10" x1="11415" y1="110641" x2="4143" y2= "108860" />
  <path fill="white" fill-rule="nonzero" stroke="#010001" stroke-width="417" stroke-miterlimit="2.61313" d="M163169 86069l-100909 0c-2732,0 -4947,-2216 -4947,-4948l0 -68973c0,-2732 2215,-4948 4947,-4948l100909 0c2733,0 4948,2216 4948,4948l0 68973c0,2732 -2215,4948 -4948,4948z"/>
  <path fill="#7C3AED" fill-rule="nonzero" stroke="#010001" stroke-width="417" stroke-miterlimit="2.61313" d="M164244 7200l-103059 0c-2139,0 -3872,1955 -3872,4367l0 2182 110804 0 0 -2182c0,-2412 -1734,-4367 -3873,-4367z"/>
  <path fill="#F09001" fill-rule="nonzero" stroke="#010001" stroke-width="417" stroke-miterlimit="10" d="M62847 10475c0,760 -612,1376 -1368,1376 -755,0 -1367,-616 -1367,-1376 0,-760 612,-1376 1367,-1376 756,0 1368,616 1368,1376z"/>
  <path fill="#F09001" fill-rule="nonzero" stroke="#010001" stroke-width="417" stroke-miterlimit="10" d="M68007 10475c0,760 -613,1376 -1368,1376 -756,0 -1368,-616 -1368,-1376 0,-760 612,-1376 1368,-1376 755,0 1368,616 1368,1376z"/>
  <path fill="#F09001" fill-rule="nonzero" stroke="#010001" stroke-width="417" stroke-miterlimit="10" d="M73166 10475c0,760 -612,1376 -1368,1376 -755,0 -1368,-616 -1368,-1376 0,-760 613,-1376 1368,-1376 756,0 1368,616 1368,1376z"/>
  <path fill="#958E99" fill-rule="nonzero" d="M66253 20518l52665 0c553,0 1001,-448 1001,-1002 0,-553 -448,-1001 -1001,-1001l-52665 0c-554,0 -1002,448 -1002,1001 0,554 448,1002 1002,1002z"/>
  <path fill="#BFBCBF" fill-rule="nonzero" d="M67707 23364l37259 0c262,0 475,-213 475,-474 0,-262 -213,-475 -475,-475l-37259 0c-262,0 -475,213 -475,475 0,261 213,474 475,474z"/>
  <path fill="#BFBCBF" fill-rule="nonzero" d="M67707 25704l43579 0c262,0 475,-212 475,-474 0,-262 -213,-474 -475,-474l-43579 0c-262,0 -475,212 -475,474 0,262 213,474 475,474z"/>
  <path fill="#BFBCBF" fill-rule="nonzero" d="M67707 28045l24404 0c262,0 474,-212 474,-474 0,-262 -212,-475 -474,-475l-24404 0c-262,0 -475,213 -475,475 0,262 213,474 475,474z"/>
  <path fill="#6248ED" fill-rule="nonzero" stroke="#010001" stroke-width="417" stroke-miterlimit="2.61313" d="M149856 27126c-5520,0 -10002,4433 -10086,9933l4616 703c-18,-180 -28,-362 -28,-546 0,-3036 2462,-5498 5498,-5498 1584,0 3007,674 4010,1745l2678 -3799c-1780,-1578 -4121,-2538 -6688,-2538z"/>
  <path fill="#F09001" fill-rule="nonzero" stroke="#010001" stroke-width="417" stroke-miterlimit="2.61313" d="M149856 47306c5573,0 10090,-4518 10090,-10090 0,-2404 -842,-4609 -2244,-6342l-3065 3634c454,800 717,1722 717,2708 0,3036 -2462,5498 -5498,5498 -2391,0 -4420,-1530 -5177,-3662 -1312,-110 -3337,-282 -4812,-418 690,4901 4898,8672 9989,8672z"/>
  <path fill="#F09001" fill-rule="nonzero" stroke="#010001" stroke-width="417" stroke-miterlimit="2.61313" d="M159942 62881c2,-83 6,-166 6,-250 0,-4871 -3452,-8936 -8043,-9882l-980 4490c2526,497 4431,2721 4431,5392 0,24 -3,48 -4,71l4590 179z"/>
  <path fill="#7C3AED" fill-rule="nonzero" stroke="#010001" stroke-width="417" stroke-miterlimit="2.61313" d="M159784 64436l-4737 0c-748,2149 -2786,3693 -5189,3693 -3036,0 -5498,-2461 -5498,-5498 0,-2968 2355,-5381 5298,-5487l873 -4578c-223,-15 -447,-25 -673,-25 -5572,0 -10090,4518 -10090,10090 0,5573 4518,10090 10090,10090 4956,0 9075,-3574 9926,-8285z"/>
  <line fill="none" fill-rule="nonzero" stroke="#010001" stroke-width="417" stroke-linecap="round" stroke-miterlimit="10" x1="59012" y1="76230" x2="141044" y2= "76230" />
  <polygon fill="#958E99" fill-rule="nonzero" stroke="#010001" stroke-width="417" stroke-miterlimit="2.61313" points="134102,76230 125052,76230 125052,27126 134102,27126 "/>
  <polygon fill="#958E99" fill-rule="nonzero" stroke="#010001" stroke-width="417" stroke-miterlimit="2.61313" points="109440,76230 100391,76230 100391,51111 109440,51111 "/>
  <polygon fill="#BFBCBF" fill-rule="nonzero" stroke="#010001" stroke-width="417" stroke-miterlimit="2.61313" points="121771,76230 112722,76230 112722,42349 121771,42349 "/>
  <polygon fill="#958E99" fill-rule="nonzero" stroke="#010001" stroke-width="417" stroke-miterlimit="2.61313" points="84779,76230 75730,76230 75730,35959 84779,35959 "/>
  <polygon fill="#BFBCBF" fill-rule="nonzero" stroke="#010001" stroke-width="417" stroke-miterlimit="2.61313" points="72449,76230 63399,76230 63399,65879 72449,65879 "/>
  <polygon fill="#BFBCBF" fill-rule="nonzero" stroke="#010001" stroke-width="417" stroke-miterlimit="2.61313" points="97110,76230 88061,76230 88061,57252 97110,57252 "/>
  <polyline fill="none" fill-rule="nonzero" stroke="#7C3AED" stroke-width="417" stroke-miterlimit="10" points="65271,50662 74503,33146 85710,33146 93385,52679 100832,38312 104916,44212 120292,28235 "/>
  <path fill="#7C3AED" fill-rule="nonzero" d="M101968 38312c0,628 -508,1137 -1136,1137 -627,0 -1136,-509 -1136,-1137 0,-627 509,-1136 1136,-1136 628,0 1136,509 1136,1136z"/>
  <path fill="#7C3AED" fill-rule="nonzero" d="M106052 44353c0,627 -509,1136 -1136,1136 -628,0 -1136,-509 -1136,-1136 0,-628 508,-1136 1136,-1136 627,0 1136,508 1136,1136z"/>
  <path fill="#7C3AED" fill-rule="nonzero" d="M94446 52679c0,627 -508,1136 -1136,1136 -627,0 -1136,-509 -1136,-1136 0,-628 509,-1136 1136,-1136 628,0 1136,508 1136,1136z"/>
  <path fill="#010001" fill-rule="nonzero" d="M86896 33146c0,627 -509,1136 -1136,1136 -628,0 -1137,-509 -1137,-1136 0,-628 509,-1137 1137,-1137 627,0 1136,509 1136,1137z"/>
  <path fill="#7C3AED" fill-rule="nonzero" d="M75730 32992c0,627 -509,1136 -1136,1136 -628,0 -1136,-509 -1136,-1136 0,-628 508,-1137 1136,-1137 627,0 1136,509 1136,1137z"/>
  <polygon fill="#7C3AED" fill-rule="nonzero" points="118844,27361 121355,29337 124545,23672 "/>
  <path fill="white" fill-rule="nonzero" d="M91655 38532l-5877 -3162 3607 -5625c0,0 1001,-2523 1453,-3272 452,-749 1097,-1256 1402,-1125 304,130 554,367 520,1104 -34,737 -107,1039 -107,1039 0,0 2129,-3038 2684,-3515 555,-476 1104,-617 1315,-516 212,101 -230,1096 -230,1096 0,0 826,-854 1198,-887 373,-33 653,396 596,692 0,0 755,-548 891,-67 136,480 -253,1579 -253,1579 0,0 854,-790 1132,-21 278,768 -2739,4365 -3175,4919 -436,555 -4046,5741 -4046,5741l-1110 2020z"/>
  <path fill="none" fill-rule="nonzero" stroke="#010001" stroke-width="417" stroke-linecap="round" stroke-miterlimit="10" d="M96731 28142c1696,-2246 3188,-3265 3255,-2290 68,974 -3571,5413 -4750,6906 -1179,1494 -3692,5792 -3692,5792"/>
  <polyline fill="none" fill-rule="nonzero" stroke="#010001" stroke-width="417" stroke-linecap="round" stroke-miterlimit="10" points="91544,38550 85760,35259 86212,34407 "/>
  <path fill="none" fill-rule="nonzero" stroke="#010001" stroke-width="417" stroke-linecap="round" stroke-miterlimit="10" d="M86212 34407c0,0 2571,-3569 3692,-5990 1120,-2421 2003,-3474 2640,-2939 637,535 -705,2785 -461,3975 244,1191 158,2075 -68,2662"/>
  <path fill="none" fill-rule="nonzero" stroke="#010001" stroke-width="417" stroke-linecap="round" stroke-miterlimit="10" d="M98721 25976c0,0 1027,-1942 -51,-1894 -571,25 -2177,2491 -2785,3279"/>
  <path fill="none" fill-rule="nonzero" stroke="#010001" stroke-width="417" stroke-linecap="round" stroke-miterlimit="10" d="M98073 24500c0,0 101,-700 -260,-806 -401,-119 -1056,244 -1597,1186 -1027,1789 -1149,1973 -1149,1973"/>
  <path fill="none" fill-rule="nonzero" stroke="#010001" stroke-width="417" stroke-linecap="round" stroke-miterlimit="10" d="M96744 24165c0,0 281,-974 -601,-785 -882,188 -3845,4403 -3845,4403"/>
  <path fill="#7C3AED" fill-rule="nonzero" d="M60499 40708c0,0 6970,5362 12401,3028 5430,-2334 12161,-11735 12161,-11735l8557 5837c0,0 -2446,19244 -13953,22765 -11507,3521 -14374,637 -14374,637l-5050 -1725 258 -18807z"/>
  <path fill="#7C3AED" fill-rule="nonzero" stroke="#010001" stroke-width="417" stroke-miterlimit="2.61313" d="M85061 32001l8557 5837c0,0 -166,1305 -614,3295l-9787 -6735c1137,-1410 1844,-2397 1844,-2397z"/>
  <path fill="#010001" fill-rule="nonzero" d="M85771 33700c16,321 -232,595 -554,610 -321,16 -594,-231 -610,-553 -16,-321 231,-595 553,-611 321,-16 595,232 611,554z"/>
  <line fill="none" fill-rule="nonzero" stroke="#010001" stroke-width="417" stroke-linecap="round" stroke-miterlimit="10" x1="85061" y1="32001" x2="93618" y2= "37838" />
  <path fill="none" fill-rule="nonzero" stroke="#010001" stroke-width="417" stroke-linecap="round" stroke-miterlimit="10" d="M93618 37838c0,0 -2446,19244 -13953,22765 -11507,3521 -14374,637 -14374,637"/>
  <polyline fill="none" fill-rule="nonzero" stroke="#010001" stroke-width="417" stroke-linecap="round" stroke-miterlimit="10" points="65291,61240 60241,59515 60499,40708 "/>
  <path fill="none" fill-rule="nonzero" stroke="#010001" stroke-width="417" stroke-linecap="round" stroke-miterlimit="10" d="M60499 40708c0,0 3847,2960 8052,3524"/>
  <path fill="#7C3AED" fill-rule="nonzero" d="M43493 59910l-409 206 280 -141 -55 -478 -515 -4516 6635 -14188c0,0 -7866,1960 -11135,7903 -3268,5944 -8291,17936 -3098,24582 3271,4187 9672,4422 14852,478l-6555 -13846z"/>
  <path fill="none" fill-rule="nonzero" stroke="#010001" stroke-width="417" stroke-linecap="round" stroke-miterlimit="10" d="M40193 46111c3714,-3942 9236,-5318 9236,-5318"/>
  <polyline fill="none" fill-rule="nonzero" stroke="#010001" stroke-width="417" stroke-linecap="round" stroke-miterlimit="10" points="42794,54981 43364,59975 50048,73756 "/>
  <path fill="none" fill-rule="nonzero" stroke="#010001" stroke-width="417" stroke-linecap="round" stroke-miterlimit="10" d="M50048 73756c-5241,4187 -11519,3788 -14852,-478 -1473,-1885 -2124,-4199 -2226,-6684"/>
  <polygon fill="white" fill-rule="nonzero" stroke="#010001" stroke-width="417" stroke-miterlimit="2.61313" points="73942,138967 77443,153240 68156,154091 64899,140044 "/>
  <polygon fill="white" fill-rule="nonzero" stroke="#010001" stroke-width="417" stroke-miterlimit="2.61313" points="79342,150426 64678,151305 66460,161754 91458,161631 81934,156260 "/>
  <line fill="none" fill-rule="nonzero" stroke="#010001" stroke-width="417" stroke-linecap="round" stroke-miterlimit="10" x1="86142" y1="157864" x2="83962" y2= "159274" />
  <line fill="none" fill-rule="nonzero" stroke="#010001" stroke-width="417" stroke-linecap="round" stroke-miterlimit="10" x1="84425" y1="156453" x2="82245" y2= "157864" />
  <path fill="#6248ED" fill-rule="nonzero" stroke="#010001" stroke-width="417" stroke-miterlimit="2.61313" d="M66460 161754l-947 -5554c403,-69 816,-110 1241,-110 3505,0 6390,2461 6783,5629l-7077 35z"/>
  <polygon fill="white" fill-rule="nonzero" stroke="#010001" stroke-width="417" stroke-miterlimit="2.61313" points="47986,139247 48127,153942 38892,152645 38937,138226 "/>
  <polygon fill="white" fill-rule="nonzero" stroke="#010001" stroke-width="417" stroke-miterlimit="2.61313" points="50985,150924 36704,151242 35628,161754 60626,161631 51102,156260 "/>
  <line fill="none" fill-rule="nonzero" stroke="#010001" stroke-width="417" stroke-linecap="round" stroke-miterlimit="10" x1="55310" y1="157864" x2="53130" y2= "159274" />
  <line fill="none" fill-rule="nonzero" stroke="#010001" stroke-width="417" stroke-linecap="round" stroke-miterlimit="10" x1="53593" y1="156453" x2="51413" y2= "157864" />
  <path fill="#6248ED" fill-rule="nonzero" stroke="#010001" stroke-width="417" stroke-miterlimit="2.61313" d="M35628 161754l557 -5445c0,0 5819,-219 6520,5410l-7077 35z"/>
  <path fill="white" fill-rule="nonzero" d="M40808 81779c0,0 18656,338 24163,934 5508,595 -1121,-13204 -1121,-13204l-17773 0 -5269 12270z"/>
  <polygon fill="#F09001" fill-rule="nonzero" points="52592,90770 61955,147508 81558,145929 68061,78222 50047,78222 "/>
  <polyline fill="none" fill-rule="nonzero" stroke="#010001" stroke-width="417" stroke-linecap="round" stroke-miterlimit="10" points="52667,91184 61955,147508 81558,145929 "/>
  <polyline fill="none" fill-rule="nonzero" stroke="#3A4936" stroke-width="104" stroke-miterlimit="10" points="58534,88881 55481,89145 53668,113524 "/>
  <polygon fill="#F09001" fill-rule="nonzero" points="58534,88881 55481,89145 52667,146564 32336,146284 40834,83057 41746,77079 62654,71366 "/>
  <polyline fill="none" fill-rule="nonzero" stroke="#010001" stroke-width="417" stroke-linecap="round" stroke-miterlimit="10" points="58534,88881 55481,89145 52667,146564 32336,146284 "/>
  <path fill="white" fill-rule="nonzero" d="M50156 49832c0,0 -715,-5991 -417,-7729 297,-1738 1250,-3762 2768,-3852 1519,-89 5329,30 6044,1012 714,983 2113,2323 1607,5835 -506,3513 -2679,16364 -2679,16364l-1556 3761 -2759 0 -3008 -15391z"/>
  <line fill="none" fill-rule="nonzero" stroke="#010001" stroke-width="417" stroke-linecap="round" stroke-miterlimit="10" x1="54953" y1="39607" x2="54728" y2= "73938" />
  <path fill="#010001" fill-rule="nonzero" d="M54138 46304c0,288 -233,521 -521,521 -288,0 -521,-233 -521,-521 0,-288 233,-521 521,-521 288,0 521,233 521,521z"/>
  <path fill="#010001" fill-rule="nonzero" d="M53947 51183c0,288 -234,521 -521,521 -288,0 -521,-233 -521,-521 0,-288 233,-521 521,-521 287,0 521,233 521,521z"/>
  <path fill="#010001" fill-rule="nonzero" d="M54138 56062c0,288 -233,521 -521,521 -288,0 -521,-233 -521,-521 0,-288 233,-521 521,-521 288,0 521,233 521,521z"/>
  <path fill="#010001" fill-rule="nonzero" d="M54138 60941c0,288 -233,521 -521,521 -288,0 -521,-233 -521,-521 0,-288 233,-521 521,-521 288,0 521,233 521,521z"/>
  <path fill="#7C3AED" fill-rule="nonzero" d="M53164 67796l903 195c0,0 -2315,-14334 -2607,-16075 -292,-1742 -1088,-12009 382,-12591 1469,-583 5401,-270 5401,-270 0,0 1516,530 1695,4128 178,3597 -4250,25188 -4250,25188l1428 -294 8562 -20091 -2292 -1935 1531 -525c0,0 -485,-2666 -1848,-4058 -1363,-1391 -3799,-3350 -5141,-3753 -1341,-402 -4585,-784 -7059,1456 -2475,2239 -4264,3850 -4464,6355l1625 525 -2293 1935 4814 11474 3613 8336z"/>
  <path fill="none" fill-rule="nonzero" stroke="#010001" stroke-width="417" stroke-linecap="round" stroke-miterlimit="10" d="M53439 68371c-1748,-3639 -8702,-20385 -8702,-20385"/>
  <polyline fill="none" fill-rule="nonzero" stroke="#010001" stroke-width="417" stroke-linecap="round" stroke-miterlimit="10" points="44737,47986 47030,46051 45405,45526 "/>
  <path fill="none" fill-rule="nonzero" stroke="#010001" stroke-width="417" stroke-linecap="round" stroke-miterlimit="10" d="M45405 45526c936,-5229 6686,-7632 6686,-7632"/>
  <line fill="none" fill-rule="nonzero" stroke="#010001" stroke-width="417" stroke-linecap="round" stroke-miterlimit="10" x1="52091" y1="37894" x2="57325" y2= "37894" />
  <path fill="none" fill-rule="nonzero" stroke="#010001" stroke-width="417" stroke-linecap="round" stroke-miterlimit="10" d="M57325 37894c0,0 5749,2403 6685,7632"/>
  <polyline fill="none" fill-rule="nonzero" stroke="#010001" stroke-width="417" stroke-linecap="round" stroke-miterlimit="10" points="64010,45526 62386,46051 64678,47986 "/>
  <path fill="none" fill-rule="nonzero" stroke="#010001" stroke-width="417" stroke-linecap="round" stroke-miterlimit="10" d="M64678 47986c0,0 -6953,16746 -8701,20385"/>
  <path fill="#7C3AED" fill-rule="nonzero" d="M34484 88383c8870,1254 12844,-59 14932,-1762 2088,-1704 6685,-17721 6685,-17721l-15606 2932c0,0 -2404,5358 -3607,8954 -666,1989 -2404,7597 -2404,7597z"/>
  <path fill="none" fill-rule="nonzero" stroke="#010001" stroke-width="417" stroke-linecap="round" stroke-miterlimit="10" d="M56101 68900c0,0 -4597,16017 -6685,17721 -2088,1703 -6062,3016 -14932,1762"/>
  <path fill="#7C3AED" fill-rule="nonzero" d="M71619 80786c-1163,-3596 -4507,-12812 -4507,-12812l-10 0 -1534 -4165 2489 -7892 -2381 -1150 -11538 6400 -945 7297 -288 10c0,0 4589,16443 6607,18147 2017,1703 5858,3016 14430,1762 0,0 -1680,-5608 -2323,-7597z"/>
  <path fill="none" fill-rule="nonzero" stroke="#010001" stroke-width="417" stroke-linecap="round" stroke-miterlimit="10" d="M52905 68474c0,0 4589,16443 6607,18147 2017,1703 5858,3016 14430,1762"/>
  <polyline fill="none" fill-rule="nonzero" stroke="#010001" stroke-width="417" stroke-linecap="round" stroke-miterlimit="10" points="73942,88383 71888,81635 66865,67268 65568,63809 68000,56376 "/>
  <path fill="#010001" fill-rule="nonzero" d="M61874 68135l-12113 4465c-1171,431 -2471,-168 -2902,-1339l-6416 -17406c-431,-1171 168,-2471 1340,-2903l12113 -4464c1171,-432 2470,168 2902,1339l6415 17406c432,1171 -168,2470 -1339,2902z"/>
  <path fill="#BFBCBF" fill-rule="nonzero" d="M51353 49380l-5760 2123c-642,237 -1356,-92 -1592,-735 -237,-643 92,-1356 734,-1593l5760 -2123c643,-237 1356,92 1593,735 237,643 -92,1356 -735,1593z"/>
  <path fill="#BFBCBF" fill-rule="nonzero" d="M47003 46450c-994,366 -1502,1468 -1136,2461 366,993 1468,1502 2461,1136 993,-366 1501,-1468 1135,-2461 -366,-993 -1467,-1502 -2460,-1136zm1024 2780l0 0c-542,200 -1144,-77 -1344,-620 -199,-542 78,-1143 620,-1343 543,-200 1144,77 1344,620 200,542 -78,1143 -620,1343z"/>
  <path fill="white" fill-rule="nonzero" d="M52375 65770c0,0 9428,-9241 9983,-11915 465,-2242 -3492,2780 -3492,2780 0,0 3160,-3302 2620,-4119 -540,-816 -3700,3278 -3700,3278 0,0 3405,-4021 2767,-4544 -637,-522 -3843,3762 -3843,3762 0,0 3507,-4052 2774,-4680 -733,-628 -3979,3760 -3979,3760 0,0 1690,-2966 955,-3187 -734,-220 -3781,6064 -8010,9803 -2422,2141 3925,5062 3925,5062z"/>
  <path fill="#0F110E" fill-rule="nonzero" d="M57064 54836c944,-1065 2003,-2277 2519,-3624 108,-280 252,-714 -4,-963 -201,-195 -502,-137 -731,-36 -858,379 -1544,1301 -2124,2001 -445,538 -874,1091 -1277,1661 89,53 179,105 269,158 217,-389 421,-786 612,-1188 222,-469 543,-1040 551,-1572 8,-528 -389,-665 -786,-381 -499,359 -855,987 -1209,1482 -855,1193 -1668,2411 -2497,3621 -710,1035 -1591,1972 -2421,2911 -814,921 -1620,1867 -2498,2727 -144,141 77,362 221,221 1510,-1480 2909,-3130 4246,-4766 632,-774 1159,-1611 1725,-2432 421,-611 848,-1219 1278,-1823 356,-499 697,-1074 1135,-1505 191,-189 459,-382 488,-9 9,115 -58,272 -92,379 -109,340 -259,667 -411,989 -191,402 -395,799 -611,1188 -100,178 155,320 269,158 783,-1106 1641,-2249 2675,-3132 185,-158 550,-503 825,-471 420,48 43,766 -54,966 -574,1182 -1453,2242 -2319,3219 -133,150 87,372 221,221z"/>
  <path fill="#0F110E" fill-rule="nonzero" d="M58072 55682c662,-764 1304,-1550 1905,-2363 328,-442 701,-913 893,-1435 137,-372 63,-890 -414,-927 -297,-23 -591,145 -821,314 -445,328 -799,763 -1118,1210 -117,164 154,320 270,158 273,-383 577,-759 948,-1054 178,-141 407,-304 643,-317 348,-21 253,410 147,633 -225,475 -555,908 -867,1328 -366,490 -750,968 -1139,1440 -220,266 -442,531 -668,792 -131,151 89,373 221,221z"/>
  <path fill="#0F110E" fill-rule="nonzero" d="M59374 56315c365,-409 710,-837 1045,-1270 443,-573 926,-1178 1193,-1858 100,-255 200,-646 -11,-876 -203,-221 -535,-116 -763,0 -601,304 -1089,861 -1519,1362 -131,152 89,374 221,221 372,-434 773,-880 1256,-1196 124,-82 258,-161 405,-195 44,-10 63,-15 117,-8 10,1 46,21 44,19 16,20 22,22 31,48 19,58 17,66 16,128 -2,147 -50,298 -106,434 -255,611 -692,1163 -1093,1684 -338,439 -688,872 -1057,1286 -133,150 87,371 221,221z"/>
  <path fill="#0F110E" fill-rule="nonzero" d="M60690 54686c251,-316 1273,-1726 1589,-1319 188,242 1,691 -91,931 -342,889 -936,1698 -1497,2456 -619,838 -1334,1579 -2041,2344 -1106,1196 -2217,2388 -3342,3566 -952,997 -1896,2149 -3012,2971 -160,118 -4,389 158,270 1041,-767 1922,-1817 2812,-2746 1266,-1320 2514,-2658 3755,-4002 872,-944 1691,-1854 2422,-2919 459,-671 973,-1418 1164,-2223 66,-278 103,-629 -102,-862 -99,-113 -250,-188 -403,-181 -343,16 -675,417 -892,642 -261,270 -507,556 -740,851 -124,156 96,378 220,221z"/>
  <path fill="#7C3AED" fill-rule="nonzero" d="M57160 62336l-6657 -5960 -11306 5699 4167 -2100 -24 -209 -288 366 -5813 2836 -1299 11150c5545,5534 16992,2396 21220,-11782z"/>
  <path fill="none" fill-rule="nonzero" stroke="#010001" stroke-width="417" stroke-linecap="round" stroke-miterlimit="10" d="M35196 73278c5193,6647 17537,3905 21964,-10942"/>
  <polyline fill="none" fill-rule="nonzero" stroke="#010001" stroke-width="417" stroke-linecap="round" stroke-miterlimit="10" points="57160,62336 50503,56376 39197,62075 "/>
  <line fill="none" fill-rule="nonzero" stroke="#010001" stroke-width="417" stroke-linecap="round" stroke-miterlimit="10" x1="47454" y1="57913" x2="55552" y2= "66550" />
  <path fill="#010001" fill-rule="nonzero" d="M50595 58294c0,343 -278,620 -621,620 -342,0 -620,-277 -620,-620 0,-343 278,-620 620,-620 343,0 621,277 621,620z"/>
  <path fill="white" fill-rule="nonzero" stroke="#010001" stroke-width="417" stroke-miterlimit="2.61313" d="M55085 42076c0,0 2423,2090 4239,938 2485,-1576 -528,-4579 -2596,-5877 -2068,-1298 -3775,0 -3775,0 0,0 -4164,2507 -3620,4627 543,2120 4011,1997 5752,312z"/>
  <path fill="#010001" fill-rule="nonzero" d="M57767 19614c0,0 -6632,-1927 -10378,5721 -2876,5871 -2004,9978 -1444,11569 156,442 547,740 992,753l15539 439c499,15 941,-330 1077,-837 874,-3253 3259,-14762 -5786,-17645z"/>
  <path fill="white" fill-rule="nonzero" stroke="#010001" stroke-width="392" stroke-miterlimit="2.61313" d="M58085 23284l-3070 156c-2041,103 -3615,2090 -3497,4414l242 4759c7,134 20,266 38,396 -26,142 -38,289 -31,439l147 2897 9 162 147 2897c53,1051 957,1868 2008,1814l1218 -62c1051,-53 1868,-957 1815,-2008l-131 -2564 1776 -90c2041,-104 3614,-2090 3496,-4414l-241 -4759c-118,-2324 -1885,-4141 -3926,-4037z"/>
  <path fill="#010001" fill-rule="nonzero" d="M55946 29188c19,382 345,676 727,657 382,-20 676,-345 657,-727 -19,-383 -345,-677 -727,-657 -382,19 -676,345 -657,727z"/>
  <path fill="#010001" fill-rule="nonzero" d="M60472 28856c16,327 294,578 620,561 327,-16 578,-294 561,-621 -16,-326 -294,-577 -621,-560 -326,16 -577,294 -560,620z"/>
  <path fill="white" fill-rule="nonzero" d="M59955 31722c0,0 -297,1031 -1029,1137 -731,107 -1349,-678 -1421,-1312l2450 175z"/>
  <path fill="#010001" fill-rule="nonzero" d="M59744 31663c-8,26 -17,52 -26,77 -9,27 -19,53 -29,79 -3,7 -6,15 -9,23 -12,29 15,-34 1,-3 -9,20 -18,41 -27,62 -87,186 -189,359 -326,500 -149,153 -326,253 -550,249 -261,-3 -492,-152 -667,-336 -194,-204 -352,-484 -387,-767 -73,73 -146,146 -219,219 714,50 1428,101 2141,152 103,7 206,15 309,22 280,20 279,-417 0,-437 -714,-51 -1428,-102 -2142,-153 -103,-7 -205,-14 -308,-22 -108,-7 -233,107 -219,219 84,660 563,1361 1244,1511 644,142 1158,-279 1444,-820 76,-146 146,-300 191,-458 79,-271 -343,-387 -421,-117z"/>
  <path fill="#ED80A5" fill-rule="nonzero" d="M53670 31855c48,950 857,1681 1807,1633 950,-49 1681,-858 1633,-1808 -48,-950 -857,-1681 -1807,-1633 -950,48 -1682,858 -1633,1808z"/>
  <path fill="#ED80A5" fill-rule="nonzero" d="M61731 30224c105,-5 207,3 306,22l90 1784c14,266 17,525 -24,779 -71,16 -163,30 -239,34 -723,37 -1339,-520 -1375,-1243 -37,-723 519,-1339 1242,-1376z"/>
  <path fill="#010001" fill-rule="nonzero" d="M62574 27253c0,0 -2529,-776 -4020,-3182 0,0 -1360,3580 -5828,5593 -5848,2634 -2922,-4534 -1303,-6387 1619,-1852 9886,-4156 11151,3976z"/>
  <path fill="white" fill-rule="nonzero" d="M47818 31347c68,1339 1217,2369 2567,2301 1350,-69 2390,-1210 2322,-2549 -68,-1339 -1218,-2369 -2568,-2300 -1350,68 -2389,1209 -2321,2548z"/>
  <path fill="#010001" fill-rule="nonzero" d="M51870 31476c3,-210 -39,-431 -106,-629 -147,-433 -438,-783 -870,-951 -326,-127 -683,-116 -1023,-63 -139,22 -229,204 -188,332 49,152 182,211 332,188 9,-1 87,-11 21,-4 14,-1 29,-3 44,-5 37,-3 73,-6 109,-8 70,-4 141,-4 211,0 28,2 56,5 84,7 63,6 -63,-11 -1,0 11,2 23,4 34,6 57,11 113,25 168,43 25,8 48,18 73,27 34,12 -63,-31 -16,-6 9,4 18,8 27,12 47,23 92,50 135,79 8,6 15,11 23,16 42,27 -43,-35 -17,-13 16,13 32,26 47,39 35,32 69,66 100,103 6,6 11,13 17,19 21,25 13,41 -11,-15 7,17 23,32 33,46 25,36 47,73 68,110 19,35 36,71 53,107 27,58 -21,-57 -2,-5 7,19 15,38 22,58 23,66 42,134 58,203 7,30 13,61 18,92 3,14 5,28 7,43 11,64 -6,-55 -3,-24 7,64 15,129 14,193 -2,141 125,276 270,270 147,-7 267,-118 269,-270z"/>
  <path fill="#010001" fill-rule="nonzero" d="M61596 27384c-398,-127 -824,-172 -1239,-125 -113,13 -224,92 -219,219 5,107 97,232 219,219 194,-22 391,-25 585,-7 26,3 52,6 77,9 -37,-5 24,3 30,4 47,8 95,16 142,26 97,20 193,46 288,77 109,35 244,-41 269,-153 27,-119 -36,-231 -152,-269z"/>
  <path fill="#010001" fill-rule="nonzero" d="M57003 27335c-239,76 -473,173 -694,291 -103,55 -203,114 -300,178 -99,65 -190,143 -291,206 -97,61 -143,198 -78,299 63,97 195,144 299,79 94,-59 180,-133 273,-195 96,-64 196,-124 298,-179 219,-118 375,-183 609,-257 109,-35 190,-154 153,-269 -35,-109 -152,-190 -269,-153z"/>
  <path fill="#010001" fill-rule="nonzero" d="M58823 28476c264,571 583,1115 953,1623 26,-99 52,-199 79,-299 -237,123 -498,204 -764,232 -117,12 -218,92 -218,219 0,108 100,231 218,218 347,-36 674,-131 984,-291 98,-51 146,-207 79,-299 -371,-509 -690,-1052 -953,-1624 -50,-107 -204,-134 -299,-78 -110,64 -128,191 -79,299z"/>
  <path fill="#010001" fill-rule="nonzero" d="M42983 16998c0,2483 2013,4496 4496,4496 2483,0 4496,-2013 4496,-4496 0,-2483 -2013,-4496 -4496,-4496 -2483,0 -4496,2013 -4496,4496z"/>
  <line fill="none" fill-rule="nonzero" stroke="#010001" stroke-width="417" stroke-miterlimit="10" x1="170604" y1="133280" x2="183852" y2= "129782" />
  <path fill="#F09001" fill-rule="nonzero" d="M186224 135141c-1897,478 -4045,-1552 -4798,-4536 -753,-2984 174,-5791 2070,-6269 1896,-479 4044,1552 4798,4535 753,2984 -174,5791 -2070,6270z"/>
  <path fill="#010001" fill-rule="nonzero" d="M185037 130439c-246,62 -525,-201 -623,-588 -97,-388 23,-752 269,-814 246,-62 525,202 622,589 98,387 -22,751 -268,813z"/>
  <line fill="none" fill-rule="nonzero" stroke="#010001" stroke-width="417" stroke-miterlimit="10" x1="165526" y1="145075" x2="177188" y2= "117990" />
  <path fill="#F09001" fill-rule="nonzero" d="M187463 118766c-1741,2719 -6641,2689 -10943,-66 -4302,-2756 -6378,-7194 -4636,-9913 1741,-2719 6641,-2689 10943,66 4302,2756 6378,7194 4636,9913z"/>
  <path fill="#010001" fill-rule="nonzero" d="M181086 113593c-162,253 -618,250 -1018,-6 -401,-257 -594,-670 -432,-923 162,-253 618,-250 1019,6 400,257 593,670 431,923z"/>
  <line fill="none" fill-rule="nonzero" stroke="#010001" stroke-width="417" stroke-miterlimit="10" x1="170965" y1="119957" x2="173243" y2= "126974" />
  <line fill="none" fill-rule="nonzero" stroke="#010001" stroke-width="417" stroke-miterlimit="10" x1="165066" y1="144378" x2="160760" y2= "106625" />
  <path fill="#F09001" fill-rule="nonzero" d="M168556 105178c439,2765 -2690,5560 -6990,6243 -4299,683 -8140,-1004 -8580,-3769 -439,-2764 2690,-5559 6990,-6242 4299,-683 8141,1004 8580,3768z"/>
  <path fill="#010001" fill-rule="nonzero" d="M161782 106255c57,359 -349,722 -908,811 -558,88 -1057,-131 -1114,-490 -57,-359 349,-722 908,-811 558,-88 1057,131 1114,490z"/>
  <line fill="none" fill-rule="nonzero" stroke="#010001" stroke-width="417" stroke-miterlimit="10" x1="159755" y1="146762" x2="145180" y2= "123766" />
  <line fill="none" fill-rule="nonzero" stroke="#010001" stroke-width="417" stroke-miterlimit="10" x1="142259" y1="131906" x2="150448" y2= "132077" />
  <line fill="none" fill-rule="nonzero" stroke="#010001" stroke-width="417" stroke-miterlimit="10" x1="152826" y1="135829" x2="155053" y2= "130667" />
  <path fill="#F09001" fill-rule="nonzero" d="M151734 118974c1353,1799 -464,5449 -4060,8154 -3595,2705 -7606,3440 -8959,1642 -1353,-1799 464,-5450 4059,-8155 3595,-2705 7607,-3439 8960,-1641z"/>
  <path fill="#010001" fill-rule="nonzero" d="M146026 123269c166,221 -57,671 -500,1004 -443,333 -937,423 -1103,202 -167,-221 57,-671 500,-1004 442,-333 936,-424 1103,-202z"/>
  <polygon fill="#7C3AED" fill-rule="nonzero" points="176758,161770 151816,161770 151816,137782 176758,137782 "/>
  <path fill="#7C3AED" fill-rule="nonzero" d="M176758 161568l-3106 0 0 -5869 3106 0 0 -417 -3106 0 0 -5868 3106 0 0 -417 -3106 0 0 -5869 3106 0 0 -416 -3106 0 0 -4930 -417 0 0 4930 -5869 0 0 -4930 -416 0 0 4930 -5869 0 0 -4930 -417 0 0 4930 -5869 0 0 -4930 -416 0 0 4930 -2563 0 0 416 2563 0 0 5869 -2563 0 0 417 2563 0 0 5868 -2563 0 0 417 2563 0 0 5869 -2563 0 0 202 24942 0 0 -202zm-16094 0l0 0 -5869 0 0 -5869 5869 0 0 5869zm0 -6286l0 0 -5869 0 0 -5868 5869 0 0 5868zm0 -6285l0 0 -5869 0 0 -5869 5869 0 0 5869zm6286 12571l0 0 -5869 0 0 -5869 5869 0 0 5869zm0 -6286l0 0 -5869 0 0 -5868 5869 0 0 5868zm0 -6285l0 0 -5869 0 0 -5869 5869 0 0 5869zm6285 12571l0 0 -5869 0 0 -5869 5869 0 0 5869zm0 -6286l0 0 -5869 0 0 -5868 5869 0 0 5868zm0 -6285l0 0 -5869 0 0 -5869 5869 0 0 5869z"/>
  <line fill="none" fill-rule="nonzero" stroke="#010001" stroke-width="417" stroke-miterlimit="10" x1="11744" y1="161770" x2="184860" y2= "161770" />
 </g>
</svg>
