<?xml version="1.0" encoding="UTF-8"?>
<!DOCTYPE svg PUBLIC "-//W3C//DTD SVG 1.1//EN" "http://www.w3.org/Graphics/SVG/1.1/DTD/svg11.dtd">
<!-- Creator: CorelDRAW (Evaluation Version) -->
<svg xmlns="http://www.w3.org/2000/svg" xml:space="preserve" width="2918px" height="1747px" version="1.1" shape-rendering="geometricPrecision" text-rendering="geometricPrecision" image-rendering="optimizeQuality" fill-rule="evenodd" clip-rule="evenodd"
viewBox="0 0 291799 174697"
 xmlns:xlink="http://www.w3.org/1999/xlink"
 xmlns:xodm="http://www.corel.com/coreldraw/odm/2003">
 <g id="OBJECTS">
  <metadata id="CorelCorpID_0Corel-Layer"/>
  <path fill="#9B69F1" fill-rule="nonzero" d="M48314 173958c0,0 -42602,-8426 -44774,-38194 -2500,-34262 31881,-34640 26607,-59475 -7361,-34664 5823,-60284 38078,-58860 27198,1201 51353,27474 65903,9163 15693,-19748 45047,-34340 74095,-22108 29048,12231 24769,51978 44858,60424 56166,21073 49209,107635 -16315,109362 -14471,313 -177674,-286 -188452,-312z"/>
  <path fill="#7C3AED" fill-rule="nonzero" d="M260098 58914c0,0 -7874,-15177 5565,-22484 14466,-7866 25557,6747 22142,18779 -3416,12032 -23515,11498 -27707,3705z"/>
  <path fill="#7C3AED" fill-rule="nonzero" d="M11305 70116c-13283,-11753 13184,-23689 12651,-6882 -842,3646 -5553,11645 -12651,6882z"/>
  <path fill="none" fill-rule="nonzero" stroke="#F09001" stroke-width="417" stroke-miterlimit="10" d="M232671 174085c-3501,246 -17637,472 -15135,-11502 2458,-9226 -10917,-8936 -6924,-17851 961,-3376 -3370,-2222 -4207,-7303 -837,-5080 2332,-9330 7816,-9303 5484,28 4254,5717 6041,7818 1786,2101 4554,166 6385,5173 1943,7047 -1324,7903 4639,11389"/>
  <path fill="#F09001" fill-rule="nonzero" stroke="#F09001" stroke-width="208" stroke-miterlimit="2.61313" d="M226782 160470c-2710,-5513 -5578,-10948 -8588,-16302 -1021,-1815 -2059,-3621 -3112,-5417 -203,-347 -744,-33 -540,315 3381,5767 6597,11629 9632,17585 699,1373 1389,2751 2068,4134 178,361 717,45 540,-315z"/>
  <path fill="#F09001" fill-rule="nonzero" stroke="#F09001" stroke-width="208" stroke-miterlimit="2.61313" d="M212785 148993c2329,241 4659,483 6989,725 335,34 670,69 1006,104 399,42 396,-584 0,-625 -2330,-242 -4659,-483 -6989,-725 -335,-35 -671,-69 -1006,-104 -400,-42 -397,584 0,625z"/>
  <path fill="#F09001" fill-rule="nonzero" stroke="#F09001" stroke-width="417" stroke-miterlimit="10" d="M215578 144946c25,1359 -2442,1359 -2417,0 -24,-1358 2442,-1358 2417,0z"/>
  <path fill="#F09001" fill-rule="nonzero" stroke="#F09001" stroke-width="417" stroke-miterlimit="10" d="M218272 135530c-765,1369 -2898,137 -2094,-1209 764,-1370 2898,-138 2094,1209z"/>
  <path fill="#F09001" fill-rule="nonzero" stroke="#F09001" stroke-width="417" stroke-miterlimit="10" d="M223139 162958c30,1693 -3044,1693 -3013,0 -31,-1693 3043,-1693 3013,0z"/>
  <path fill="#F09001" fill-rule="nonzero" stroke="#F09001" stroke-width="417" stroke-miterlimit="10" d="M216115 132434c10,697 -1085,697 -1075,0 -10,-697 1085,-697 1075,0z"/>
  <path fill="none" fill-rule="nonzero" stroke="#F09001" stroke-width="417" stroke-miterlimit="10" d="M253265 172923c-2898,-2067 -3184,-15175 8696,-17828 6066,-1355 5095,-4392 6320,-8298 1226,-3907 2765,-4194 6237,-4724 3473,-530 866,-5264 4988,-8005 4122,-2741 9655,-2952 11716,3040 1745,5072 -3198,7307 -4206,9666 -1009,2359 1924,5544 -1652,9101 -3577,3557 -7402,880 -7449,4647 -47,3767 -1721,10631 -5352,12043 -4492,1748 -17010,1989 -19298,358z"/>
  <path fill="#F09001" fill-rule="nonzero" stroke="#F09001" stroke-width="208" stroke-miterlimit="2.61313" d="M257301 174414c1602,-1913 3267,-3775 4873,-5685 3992,-4747 7891,-9573 11698,-14469 2764,-3554 5478,-7147 8137,-10781 237,-325 -305,-637 -540,-315 -4473,6114 -9104,12112 -13867,18003 -2968,3671 -5986,7304 -9069,10879 -555,644 -1128,1274 -1674,1926 -257,306 183,750 442,442z"/>
  <path fill="none" fill-rule="nonzero" stroke="#F09001" stroke-width="417" stroke-miterlimit="10" d="M261339 155247c-4108,-17118 6557,-7610 14044,-21259 4459,-10426 -6460,-14214 -1325,-18577 5135,-4363 6568,-19353 -953,-21931 -9751,-3342 -18514,2771 -19706,10823 -918,6211 3246,10548 -7592,15102 -10837,4552 -9163,10206 -6937,21020 2227,10813 -5097,6849 -10789,15976 -4511,7233 1828,14611 4654,17362"/>
  <line fill="none" fill-rule="nonzero" stroke="#D4A5CF" stroke-width="417" stroke-miterlimit="10" x1="232735" y1="173763" x2="254671" y2= "174140" />
  <path fill="#F09001" fill-rule="nonzero" d="M237203 173762c891,-2057 1786,-4112 2682,-6168 2206,-5063 4421,-10123 6643,-15179 2834,-6447 5681,-12888 8550,-19319 2777,-6223 5571,-12438 8422,-18627 1997,-4337 3987,-8687 6177,-12931 168,-325 338,-650 511,-973 190,-354 -350,-670 -540,-315 -2095,3911 -3938,7965 -5803,11988 -2797,6033 -5529,12096 -8245,18165 -2901,6487 -5778,12985 -8640,19489 -2342,5319 -4674,10643 -6998,15971 -1085,2489 -2232,4963 -3254,7480 -14,35 -30,69 -45,104 -158,365 380,684 540,315z"/>
  <path fill="#F09001" fill-rule="nonzero" stroke="#F09001" stroke-width="208" stroke-miterlimit="2.61313" d="M257192 128089c4292,-237 8584,-474 12875,-712 611,-34 1222,-68 1832,-101 400,-22 403,-647 0,-625 -4291,237 -8583,475 -12874,712 -611,34 -1222,68 -1833,101 -400,23 -402,648 0,625z"/>
  <path fill="#D4A5CF" fill-rule="nonzero" d="M242342 161587c3392,-382 6783,-763 10175,-1145 475,-53 950,-106 1425,-160 395,-44 399,-670 0,-625 -3392,382 -6784,763 -10175,1145 -475,53 -950,107 -1425,160 -395,44 -399,670 0,625z"/>
  <path fill="#F09001" fill-rule="nonzero" d="M240965 124807c975,2188 1950,4376 2925,6564 1547,3473 3094,6945 4641,10418 359,805 717,1610 1076,2415 163,367 702,50 540,-315 -975,-2188 -1950,-4376 -2925,-6564 -1547,-3473 -3094,-6946 -4641,-10418 -359,-806 -717,-1611 -1076,-2416 -163,-366 -702,-49 -540,316z"/>
  <path fill="none" fill-rule="nonzero" stroke="#F09001" stroke-width="417" stroke-miterlimit="10" d="M262184 102523c-1663,2503 -4707,431 -2989,-2034 1664,-2502 4707,-431 2989,2034z"/>
  <path fill="none" fill-rule="nonzero" stroke="#F09001" stroke-width="417" stroke-miterlimit="10" d="M262712 108236c19,1312 -2042,1312 -2022,0 -19,-1312 2041,-1312 2022,0z"/>
  <path fill="none" fill-rule="nonzero" stroke="#F09001" stroke-width="417" stroke-miterlimit="10" d="M270043 134316c38,2549 -3967,2549 -3929,0 -37,-2549 3967,-2549 3929,0z"/>
  <path fill="none" fill-rule="nonzero" stroke="#F09001" stroke-width="417" stroke-miterlimit="10" d="M23311 173740c-2335,612 -12894,2364 -12725,-6047 86,-4296 -1166,-4140 -3683,-5824 -2518,-1683 -2457,-2760 -2236,-5164 220,-2404 -2176,-1240 -3772,-4401 -1909,-3782 390,-6603 4100,-7282 3710,-679 3603,3323 5077,4516 1475,1193 3514,-1373 6348,2106 1849,2270 -1023,7451 1698,6968"/>
  <path fill="#F09001" fill-rule="nonzero" stroke="#F09001" stroke-width="208" stroke-miterlimit="2.61313" d="M18440 166255c-3625,-4898 -7454,-9645 -11453,-14241 -265,-304 -705,139 -442,442 3965,4556 7762,9259 11355,14114 237,320 779,8 540,-315z"/>
  <path fill="#F09001" fill-rule="nonzero" stroke="#F09001" stroke-width="208" stroke-miterlimit="2.61313" d="M12293 151788c-133,2002 -267,4003 -401,6005 -19,283 -38,566 -57,848 105,-104 209,-208 313,-312 -1837,152 -3673,304 -5510,456 -398,33 -401,658 0,625 1837,-152 3673,-304 5510,-456 177,-15 300,-132 312,-313 134,-2002 268,-4003 402,-6005 19,-283 38,-566 56,-848 27,-402 -598,-400 -625,0z"/>
  <path fill="none" fill-rule="nonzero" stroke="#F09001" stroke-width="417" stroke-miterlimit="10" d="M6821 123995c-14004,-17470 12616,-30272 18530,-9552 824,5341 -2911,9070 6810,12986 9721,3915 8219,8777 6222,18075 -1997,9299 4573,5890 9678,13739 4046,6220 -1640,12563 -4175,14929"/>
  <line fill="none" fill-rule="nonzero" stroke="#D4A5CF" stroke-width="417" stroke-miterlimit="10" x1="43886" y1="174172" x2="24003" y2= "174075" />
  <path fill="none" fill-rule="nonzero" stroke="#F09001" stroke-width="417" stroke-miterlimit="10" d="M24003 174075c-8230,-4397 -6018,-14277 -5046,-21278 720,-6986 -9323,-3863 -13323,-12828 -4001,-8965 5793,-12223 1187,-15974"/>
  <path fill="#F09001" fill-rule="nonzero" d="M40391 173878c-800,-1770 -1603,-3538 -2407,-5306 -1979,-4354 -3965,-8704 -5958,-13052 -2542,-5543 -5095,-11080 -7668,-16609 -2484,-5338 -4984,-10670 -7534,-15978 -1799,-3743 -3590,-7500 -5560,-11158 -151,-281 -304,-561 -460,-840 -196,-351 -736,-36 -540,316 1878,3359 3533,6849 5207,10312 2508,5185 4959,10398 7394,15618 2602,5576 5182,11163 7750,16755 2095,4564 4182,9132 6262,13704 665,1462 1330,2925 1993,4388 310,682 574,1421 940,2075 16,29 28,61 41,91 165,366 704,48 540,-316z"/>
  <path fill="#F09001" fill-rule="nonzero" stroke="#F09001" stroke-width="208" stroke-miterlimit="2.61313" d="M21949 134316c-3853,-205 -7706,-409 -11559,-613 -544,-29 -1089,-58 -1633,-87 -402,-21 -401,604 0,625 3853,204 7706,409 11559,613 544,29 1088,58 1633,87 402,21 401,-604 0,-625z"/>
  <path fill="#F09001" fill-rule="nonzero" d="M35269 163121c-4340,-468 -8679,-936 -13019,-1404 -605,-65 -1211,-131 -1816,-196 -400,-43 -397,582 0,625 4339,468 8679,936 13018,1404 606,65 1211,130 1817,196 399,43 396,-583 0,-625z"/>
  <path fill="#D4A5CF" fill-rule="nonzero" d="M35992 131781c-874,1882 -1749,3764 -2623,5645 -1388,2985 -2775,5970 -4162,8955 -322,693 -644,1387 -966,2080 -168,362 370,680 540,315 874,-1881 1749,-3763 2623,-5645 1387,-2985 2774,-5970 4161,-8955 322,-693 645,-1387 967,-2080 168,-362 -370,-680 -540,-315z"/>
  <path fill="none" fill-rule="nonzero" stroke="#F09001" stroke-width="417" stroke-miterlimit="10" d="M17471 112912c1442,2122 4232,426 2681,-1749 -1442,-2122 -4231,-426 -2681,1749z"/>
  <path fill="none" fill-rule="nonzero" stroke="#F09001" stroke-width="417" stroke-miterlimit="10" d="M16998 117825c-18,1128 1832,1128 1814,0 17,-1128 -1832,-1128 -1814,0z"/>
  <path fill="none" fill-rule="nonzero" stroke="#F09001" stroke-width="417" stroke-miterlimit="10" d="M10422 140251c-34,2192 3559,2192 3525,0 34,-2191 -3559,-2191 -3525,0z"/>
  <path fill="none" fill-rule="nonzero" stroke="#F09001" stroke-width="417" stroke-miterlimit="10" d="M93261 133895c14177,-12804 -6497,-27217 -14305,-10572 -1422,4385 1215,8036 -7506,10008 -8721,1972 -8120,6272 -7706,14376 414,8104 -4654,4336 -10025,10251 -4256,4687 -332,10805 1480,13144"/>
  <line fill="none" fill-rule="nonzero" stroke="#D4A5CF" stroke-width="417" stroke-miterlimit="10" x1="55199" y1="171102" x2="71959" y2= "173732" />
  <path fill="none" fill-rule="nonzero" stroke="#D4A5CF" stroke-width="417" stroke-miterlimit="10" d="M71959 173732c7531,-2581 7016,-11204 7152,-17234 346,-5982 8379,-1982 12971,-8987 4592,-7005 -3212,-11085 1179,-13616"/>
  <path fill="#F09001" fill-rule="nonzero" d="M58659 171658c913,-1379 1829,-2756 2746,-4134 2246,-3374 4497,-6746 6754,-10114 2901,-4329 5811,-8652 8737,-12964 2819,-4155 5649,-8302 8519,-12422 2029,-2914 4055,-5840 6216,-8660 159,-209 320,-416 483,-621 247,-312 -192,-757 -442,-442 -2034,2567 -3902,5271 -5780,7952 -2822,4027 -5599,8086 -8364,12153 -2960,4352 -5902,8716 -8834,13086 -2395,3569 -4784,7143 -7166,10721 -764,1148 -1528,2296 -2290,3444 -352,530 -772,1054 -1072,1616 -14,24 -32,47 -47,70 -223,336 318,649 540,315z"/>
  <path fill="#D4A5CF" fill-rule="nonzero" d="M79069 141100c3269,353 6539,706 9808,1059 466,50 932,101 1398,151 400,43 397,-582 0,-625 -3269,-353 -6538,-706 -9807,-1059 -467,-50 -933,-100 -1399,-151 -399,-43 -396,582 0,625z"/>
  <path fill="#F09001" fill-rule="nonzero" d="M63922 163544c3712,198 7424,395 11136,593 526,27 1051,55 1577,83 402,22 401,-603 0,-625 -3712,-197 -7424,-394 -11137,-592 -525,-28 -1051,-56 -1576,-84 -402,-21 -401,604 0,625z"/>
  <path fill="#F09001" fill-rule="nonzero" d="M67080 136653c1240,4405 2480,8810 3720,13215 178,631 355,1261 533,1891 109,387 712,223 603,-166 -1241,-4405 -2481,-8810 -3721,-13215 -178,-630 -355,-1261 -533,-1891 -109,-386 -712,-222 -602,166z"/>
  <path fill="#F09001" fill-rule="nonzero" stroke="#F09001" stroke-width="417" stroke-miterlimit="10" d="M85802 123108c-1504,1591 -3622,-218 -2019,-1839 1503,-1590 3622,218 2019,1839z"/>
  <path fill="none" fill-rule="nonzero" stroke="#D4A5CF" stroke-width="417" stroke-miterlimit="10" d="M88011 147096c-271,1851 -3297,1361 -2969,-481 270,-1850 3297,-1360 2969,481z"/>
  <polyline fill="none" fill-rule="nonzero" stroke="#F09001" stroke-width="417" stroke-linecap="round" stroke-miterlimit="10" points="21073,64191 72694,119675 89690,88708 103607,121506 132894,93526 160253,133923 189189,63248 225440,76523 254182,36373 267509,47739 281807,25392 "/>
  <path fill="#F09001" fill-rule="nonzero" stroke="#F09001" stroke-width="208" stroke-miterlimit="2.61313" d="M74148 119166c0,918 -745,1663 -1663,1663 -918,0 -1663,-745 -1663,-1663 0,-918 745,-1663 1663,-1663 918,0 1663,745 1663,1663z"/>
  <path fill="#F09001" fill-rule="nonzero" d="M22271 63564c0,918 -745,1663 -1663,1663 -918,0 -1663,-745 -1663,-1663 0,-918 745,-1663 1663,-1663 918,0 1663,745 1663,1663z"/>
  <path fill="#F09001" fill-rule="nonzero" d="M105514 121371c0,918 -744,1663 -1663,1663 -918,0 -1662,-745 -1662,-1663 0,-918 744,-1663 1662,-1663 919,0 1663,745 1663,1663z"/>
  <path fill="#F09001" fill-rule="nonzero" d="M161916 133923c0,919 -745,1663 -1663,1663 -918,0 -1663,-744 -1663,-1663 0,-918 745,-1662 1663,-1662 918,0 1663,744 1663,1662z"/>
  <path fill="#D4A5CF" fill-rule="nonzero" d="M190851 63523c0,918 -744,1663 -1662,1663 -919,0 -1663,-745 -1663,-1663 0,-919 744,-1663 1663,-1663 918,0 1662,744 1662,1663z"/>
  <path fill="#F09001" fill-rule="nonzero" d="M227103 76367c0,918 -745,1663 -1663,1663 -919,0 -1663,-745 -1663,-1663 0,-919 744,-1663 1663,-1663 918,0 1663,744 1663,1663z"/>
  <path fill="#F09001" fill-rule="nonzero" d="M255744 36120c0,918 -744,1663 -1663,1663 -918,0 -1663,-745 -1663,-1663 0,-918 745,-1663 1663,-1663 919,0 1663,745 1663,1663z"/>
  <path fill="#F09001" fill-rule="nonzero" d="M269106 47739c0,918 -744,1663 -1663,1663 -918,0 -1663,-745 -1663,-1663 0,-918 745,-1663 1663,-1663 919,0 1663,745 1663,1663z"/>
  <polygon fill="#F09001" fill-rule="nonzero" points="279149,26322 281860,27840 283781,22463 "/>
  <path fill="none" stroke="#D4A5CF" stroke-width="417" stroke-miterlimit="10" d="M36406 43481c565,294 1080,660 1537,1083"/>
  <polyline fill="none" stroke="#D4A5CF" stroke-width="417" stroke-miterlimit="10" points="37943,44564 39586,43979 41130,46416 39900,47652 "/>
  <path fill="none" stroke="#D4A5CF" stroke-width="417" stroke-miterlimit="10" d="M39900 47652c187,594 298,1216 322,1853"/>
  <polyline fill="none" stroke="#D4A5CF" stroke-width="417" stroke-miterlimit="10" points="40222,49505 41797,50252 41165,53067 39422,53071 "/>
  <path fill="none" stroke="#D4A5CF" stroke-width="417" stroke-miterlimit="10" d="M39422 53071c-294,565 -660,1081 -1083,1538"/>
  <polyline fill="none" stroke="#D4A5CF" stroke-width="417" stroke-miterlimit="10" points="38339,54609 38924,56251 36487,57795 35251,56565 "/>
  <path fill="none" stroke="#D4A5CF" stroke-width="417" stroke-miterlimit="10" d="M35251 56565c-593,187 -1215,298 -1853,322"/>
  <polyline fill="none" stroke="#D4A5CF" stroke-width="417" stroke-miterlimit="10" points="33398,56887 32651,58462 29836,57831 29832,56088 "/>
  <path fill="none" stroke="#D4A5CF" stroke-width="417" stroke-miterlimit="10" d="M29832 56088c-565,-295 -1080,-661 -1537,-1083"/>
  <polyline fill="none" stroke="#D4A5CF" stroke-width="417" stroke-miterlimit="10" points="28295,55005 26652,55589 25108,53152 26338,51917 "/>
  <path fill="none" stroke="#D4A5CF" stroke-width="417" stroke-miterlimit="10" d="M26338 51917c-187,-594 -297,-1216 -322,-1853"/>
  <polyline fill="none" stroke="#D4A5CF" stroke-width="417" stroke-miterlimit="10" points="26016,50064 24442,49316 25073,46501 26816,46498 "/>
  <path fill="none" stroke="#D4A5CF" stroke-width="417" stroke-miterlimit="10" d="M26816 46498c294,-566 660,-1081 1083,-1538"/>
  <polyline fill="none" stroke="#D4A5CF" stroke-width="417" stroke-miterlimit="10" points="27899,44960 27314,43317 29751,41773 30987,43004 "/>
  <path fill="none" stroke="#D4A5CF" stroke-width="417" stroke-miterlimit="10" d="M30987 43004c593,-188 1216,-298 1853,-323"/>
  <polyline fill="none" stroke="#D4A5CF" stroke-width="417" stroke-miterlimit="10" points="32840,42681 33587,41107 36402,41738 36406,43481 "/>
  <path fill="none" stroke="#D4A5CF" stroke-width="417" stroke-miterlimit="10" d="M33924 46793c-1667,-374 -3323,675 -3697,2343 -374,1667 675,3323 2342,3697 1668,374 3323,-675 3698,-2343 373,-1667 -675,-3323 -2343,-3697z"/>
  <path fill="#F09001" d="M222703 35791c443,231 848,518 1206,850l1289 -459 1210 1911 -964 970c146,465 233,953 253,1453l1235 586 -496 2208 -1367 3c-230,443 -518,848 -849,1206l458 1288 -1911 1211 -969 -965c-466,147 -954,234 -1453,253l-587 1235 -2208 -495 -3 -1367c-443,-231 -847,-518 -1205,-850l-1289 459 -1211 -1911 965 -970c-147,-465 -233,-953 -253,-1453l-1235 -586 496 -2208 1366 -3c231,-443 518,-848 850,-1206l-459 -1288 1912 -1211 969 965c465,-147 954,-234 1453,-253l586 -1235 2208 495 3 1367zm-1946 2598l0 0c-1308,-293 -2606,529 -2900,1837 -293,1308 529,2607 1837,2900 1309,293 2607,-529 2900,-1837 293,-1308 -529,-2606 -1837,-2900z"/>
  <path fill="none" stroke="#F09001" stroke-width="417" stroke-miterlimit="10" d="M260595 74513c604,315 1156,706 1644,1158"/>
  <polyline fill="none" stroke="#F09001" stroke-width="417" stroke-miterlimit="10" points="262239,75671 263996,75046 265647,77652 264331,78973 "/>
  <path fill="none" stroke="#F09001" stroke-width="417" stroke-miterlimit="10" d="M264331 78973c200,635 319,1301 345,1982"/>
  <polyline fill="none" stroke="#F09001" stroke-width="417" stroke-miterlimit="10" points="264676,80955 266360,81754 265685,84765 263821,84769 "/>
  <path fill="none" stroke="#F09001" stroke-width="417" stroke-miterlimit="10" d="M263821 84769c-315,604 -706,1155 -1159,1644"/>
  <polyline fill="none" stroke="#F09001" stroke-width="417" stroke-miterlimit="10" points="262662,86413 263288,88169 260682,89820 259360,88505 "/>
  <path fill="none" stroke="#F09001" stroke-width="417" stroke-miterlimit="10" d="M259360 88505c-634,200 -1300,318 -1981,345"/>
  <polyline fill="none" stroke="#F09001" stroke-width="417" stroke-miterlimit="10" points="257379,88850 256579,90533 253569,89858 253565,87994 "/>
  <path fill="none" stroke="#D4A5CF" stroke-width="417" stroke-miterlimit="10" d="M253565 87994c-605,-314 -1156,-705 -1644,-1158"/>
  <polyline fill="none" stroke="#D4A5CF" stroke-width="417" stroke-miterlimit="10" points="251921,86836 250164,87461 248513,84855 249829,83534 "/>
  <path fill="none" stroke="#D4A5CF" stroke-width="417" stroke-miterlimit="10" d="M249829 83534c-201,-635 -318,-1300 -345,-1981"/>
  <polyline fill="none" stroke="#F09001" stroke-width="417" stroke-miterlimit="10" points="249484,81553 247800,80753 248475,77743 250339,77739 "/>
  <path fill="none" stroke="#F09001" stroke-width="417" stroke-miterlimit="10" d="M250339 77739c315,-605 706,-1156 1159,-1645"/>
  <polyline fill="none" stroke="#F09001" stroke-width="417" stroke-miterlimit="10" points="251498,76094 250872,74338 253478,72687 254799,74002 "/>
  <path fill="none" stroke="#F09001" stroke-width="417" stroke-miterlimit="10" d="M254799 74002c635,-200 1301,-318 1982,-344"/>
  <polyline fill="none" stroke="#F09001" stroke-width="417" stroke-miterlimit="10" points="256781,73658 257581,71974 260591,72649 260595,74513 "/>
  <path fill="none" stroke="#F09001" stroke-width="417" stroke-miterlimit="10" d="M257941 78055c-1783,-400 -3554,722 -3954,2505 -400,1784 722,3554 2505,3954 1784,400 3554,-722 3954,-2505 400,-1784 -721,-3554 -2505,-3954z"/>
  <path fill="none" stroke="#F09001" stroke-width="417" stroke-miterlimit="10" d="M232701 21951c449,234 858,524 1221,860"/>
  <polyline fill="none" stroke="#F09001" stroke-width="417" stroke-miterlimit="10" points="233922,22811 235226,22347 236452,24282 235476,25263 "/>
  <path fill="none" stroke="#F09001" stroke-width="417" stroke-miterlimit="10" d="M235476 25263c148,471 236,966 256,1471"/>
  <polyline fill="none" stroke="#F09001" stroke-width="417" stroke-miterlimit="10" points="235732,26734 236982,27328 236480,29563 235097,29566 "/>
  <path fill="none" stroke="#F09001" stroke-width="417" stroke-miterlimit="10" d="M235097 29566c-234,449 -525,858 -861,1221"/>
  <polyline fill="none" stroke="#F09001" stroke-width="417" stroke-miterlimit="10" points="234236,30787 234701,32092 232766,33317 231785,32341 "/>
  <path fill="none" stroke="#F09001" stroke-width="417" stroke-miterlimit="10" d="M231785 32341c-472,148 -966,236 -1472,256"/>
  <polyline fill="none" stroke="#F09001" stroke-width="417" stroke-miterlimit="10" points="230313,32597 229720,33847 227484,33346 227481,31961 "/>
  <path fill="none" stroke="#F09001" stroke-width="417" stroke-miterlimit="10" d="M227481 31961c-449,-233 -858,-524 -1220,-860"/>
  <polyline fill="none" stroke="#F09001" stroke-width="417" stroke-miterlimit="10" points="226261,31101 224956,31566 223730,29631 224707,28649 "/>
  <path fill="none" stroke="#F09001" stroke-width="417" stroke-miterlimit="10" d="M224707 28649c-148,-471 -236,-965 -256,-1471"/>
  <polyline fill="none" stroke="#F09001" stroke-width="417" stroke-miterlimit="10" points="224451,27178 223201,26585 223702,24349 225086,24346 "/>
  <path fill="none" stroke="#F09001" stroke-width="417" stroke-miterlimit="10" d="M225086 24346c234,-448 524,-858 860,-1221"/>
  <polyline fill="none" stroke="#F09001" stroke-width="417" stroke-miterlimit="10" points="225946,23125 225482,21821 227417,20595 228398,21572 "/>
  <path fill="none" stroke="#F09001" stroke-width="417" stroke-miterlimit="10" d="M228398 21572c471,-149 966,-236 1471,-256"/>
  <polyline fill="none" stroke="#F09001" stroke-width="417" stroke-miterlimit="10" points="229869,21316 230463,20066 232698,20567 232701,21951 "/>
  <path fill="none" stroke="#F09001" stroke-width="417" stroke-miterlimit="10" d="M230731 24581c-1324,-297 -2639,536 -2936,1860 -297,1325 536,2639 1860,2936 1324,297 2639,-536 2936,-1860 297,-1324 -536,-2639 -1860,-2936z"/>
  <path fill="white" fill-rule="nonzero" stroke="#010001" stroke-width="417" stroke-miterlimit="2.61313" d="M214524 105707l-131675 0c-2732,0 -4948,-2215 -4948,-4948l0 -79468c0,-2733 2216,-4948 4948,-4948l131675 0c2732,0 4947,2215 4947,4948l0 79468c0,2733 -2215,4948 -4947,4948z"/>
  <path fill="#7C3AED" fill-rule="nonzero" stroke="#010001" stroke-width="417" stroke-miterlimit="2.61313" d="M214524 16343l-131675 0c-2732,0 -4948,2215 -4948,4948l0 2472 141570 0 0 -2472c0,-2733 -2215,-4948 -4947,-4948z"/>
  <path fill="none" fill-rule="nonzero" stroke="#F09001" stroke-width="417" stroke-miterlimit="10" d="M84973 20168c0,965 -782,1747 -1748,1747 -965,0 -1747,-782 -1747,-1747 0,-966 782,-1748 1747,-1748 966,0 1748,782 1748,1748z"/>
  <path fill="none" fill-rule="nonzero" stroke="#F09001" stroke-width="417" stroke-miterlimit="10" d="M91565 20168c0,965 -783,1747 -1748,1747 -965,0 -1747,-782 -1747,-1747 0,-966 782,-1748 1747,-1748 965,0 1748,782 1748,1748z"/>
  <path fill="none" fill-rule="nonzero" stroke="#F09001" stroke-width="417" stroke-miterlimit="10" d="M98157 20168c0,965 -783,1747 -1748,1747 -965,0 -1748,-782 -1748,-1747 0,-966 783,-1748 1748,-1748 965,0 1748,782 1748,1748z"/>
  <path fill="#BFBCBF" fill-rule="nonzero" d="M144251 87574l-49487 0c-503,0 -911,-408 -911,-911 0,-504 408,-912 911,-912l49487 0c503,0 911,408 911,912 0,503 -408,911 -911,911z"/>
  <path fill="#BFBCBF" fill-rule="nonzero" d="M131983 92121l-37219 0c-503,0 -911,-408 -911,-911 0,-503 408,-911 911,-911l37219 0c503,0 911,408 911,911 0,503 -408,911 -911,911z"/>
  <path fill="#BFBCBF" fill-rule="nonzero" d="M116264 96669l-21500 0c-503,0 -911,-408 -911,-912 0,-503 408,-911 911,-911l21500 0c504,0 912,408 912,911 0,504 -408,912 -912,912z"/>
  <line fill="none" fill-rule="nonzero" stroke="#010001" stroke-width="833" stroke-linecap="round" stroke-miterlimit="10" x1="150194" y1="86397" x2="195169" y2= "86397" />
  <line fill="none" fill-rule="nonzero" stroke="#010001" stroke-width="833" stroke-linecap="round" stroke-miterlimit="10" x1="150194" y1="89665" x2="178592" y2= "89665" />
  <line fill="none" fill-rule="nonzero" stroke="#010001" stroke-width="833" stroke-linecap="round" stroke-miterlimit="10" x1="150194" y1="92932" x2="171415" y2= "92932" />
  <line fill="none" fill-rule="nonzero" stroke="#010001" stroke-width="833" stroke-linecap="round" stroke-miterlimit="10" x1="150194" y1="96199" x2="184325" y2= "96199" />
  <path fill="#F09001" fill-rule="nonzero" d="M115989 82558l8076 -11682c1642,-2376 4913,-2946 7263,-1266l1135 812c2818,2015 6782,744 7903,-2534l3921 -11472c1595,-4666 8194,-4666 9788,0l1898 5551c1522,4453 7717,4725 9623,422l1646 -3713c1641,-3705 6712,-4169 8999,-824 2403,3515 7786,2783 9164,-1246l1834 -5367c1686,-4931 8780,-4557 9938,523l7017 30796c0,0 -87959,-246 -88205,0z"/>
  <path fill="#7C3AED" fill-rule="nonzero" d="M198707 71496c-1536,-3047 -5774,-3613 -7890,-935 -72,92 -142,187 -209,285 0,0 -2303,4212 -3539,5176 -3034,2369 -6793,2889 -10866,-2555l-2547 -3166c-1692,-2104 -4740,-2506 -6919,-912l-2947 2156c-1385,1012 -3276,2976 -4732,2181 -1613,-879 -5930,-4337 -5930,-4337 -2179,-1594 -5227,-1192 -6919,912l-2547 3166c-2459,3058 -7315,2266 -8676,-1415l-3143 -8505c-1647,-4460 -7982,-4382 -9519,117l-6316 18477 -489 539c0,0 106,-1 305,-2l-62 183c0,-363 88584,-181 88584,-181l-5639 -11184z"/>
  <line fill="none" fill-rule="nonzero" stroke="#010001" stroke-width="417" stroke-linecap="round" stroke-miterlimit="10" x1="98723" y1="82852" x2="210845" y2= "82852" />
  <line fill="none" fill-rule="nonzero" stroke="#010001" stroke-width="198" stroke-miterlimit="10" x1="126533" y1="38035" x2="126533" y2= "38829" />
  <line fill="none" fill-rule="nonzero" stroke="#010001" stroke-width="198" stroke-miterlimit="10" stroke-dasharray="1605.000000 1605.000000" x1="126533" y1="40435" x2="126533" y2= "81375" />
  <line fill="none" fill-rule="nonzero" stroke="#010001" stroke-width="198" stroke-miterlimit="10" x1="126533" y1="82178" x2="126533" y2= "82971" />
  <line fill="none" fill-rule="nonzero" stroke="#010001" stroke-width="198" stroke-miterlimit="10" stroke-dasharray="1587.000000 1587.000000" x1="148648" y1="40735" x2="148648" y2= "83976" />
  <line fill="none" fill-rule="nonzero" stroke="#010001" stroke-width="198" stroke-miterlimit="10" stroke-dasharray="1587.000000 1587.000000" x1="192528" y1="34381" x2="192528" y2= "83378" />
  <line fill="none" fill-rule="nonzero" stroke="#010001" stroke-width="198" stroke-miterlimit="10" stroke-dasharray="1587.000000 1587.000000" x1="170844" y1="49784" x2="170844" y2= "82971" />
  <path fill="#BFBCBF" fill-rule="nonzero" d="M186183 48497l-15709 0c-314,0 -569,-254 -569,-569 0,-314 255,-569 569,-569l15709 0c314,0 569,255 569,569 0,315 -255,569 -569,569z"/>
  <path fill="#BFBCBF" fill-rule="nonzero" d="M207764 33243l-15709 0c-314,0 -569,-255 -569,-569 0,-315 255,-570 569,-570l15709 0c314,0 569,255 569,570 0,314 -255,569 -569,569z"/>
  <path fill="#BFBCBF" fill-rule="nonzero" d="M202885 30974l-11027 0c-205,0 -372,-166 -372,-371l0 -395c0,-206 167,-372 372,-372l11027 0c205,0 372,166 372,372l0 395c0,205 -167,371 -372,371z"/>
  <path fill="#BFBCBF" fill-rule="nonzero" d="M164071 39544l-15708 0c-314,0 -569,-255 -569,-569 0,-315 255,-569 569,-569l15708 0c315,0 570,254 570,569 0,314 -255,569 -570,569z"/>
  <path fill="#BFBCBF" fill-rule="nonzero" d="M142128 36942l-15708 0c-315,0 -570,-255 -570,-569 0,-314 255,-569 570,-569l15708 0c314,0 569,255 569,569 0,314 -255,569 -569,569z"/>
  <path fill="#BFBCBF" fill-rule="nonzero" d="M134710 34381l-8531 0c-182,0 -329,-147 -329,-328l0 -482c0,-181 147,-328 329,-328l8531 0c181,0 328,147 328,328l0 482c0,181 -147,328 -328,328z"/>
  <path fill="#BFBCBF" fill-rule="nonzero" d="M181483 46221l-11203 0c-207,0 -375,-168 -375,-375l0 -389c0,-207 168,-374 375,-374l11203 0c206,0 374,167 374,374l0 389c0,207 -168,375 -374,375z"/>
  <path fill="#F09001" fill-rule="nonzero" d="M106285 46617l15255 -2331c1279,8369 -4555,16308 -12924,17586 -8368,1279 -16307,-4555 -17586,-12924 -1278,-8368 4556,-16307 12924,-17586 1333,-203 2686,-231 4026,-83l-1695 15338z"/>
  <path fill="#6248ED" fill-rule="nonzero" d="M111235 31327l-1852 11826 11608 -2180c0,0 -1707,-6627 -9756,-9646z"/>
  <path fill="#F09001" fill-rule="nonzero" stroke="#010001" stroke-width="417" stroke-miterlimit="2.61313" d="M235017 74704c0,0 -7845,7540 -11231,12255 -3124,4350 -6930,742 -6930,742l-5982 8387c0,0 4522,4818 11550,6907 7028,2089 8195,-199 8195,-199l4398 -28092z"/>
  <path fill="white" fill-rule="nonzero" d="M219472 95523c249,530 499,1060 748,1590 48,101 177,187 280,215 113,31 262,17 362,-47 228,-148 280,-403 168,-641 -250,-530 -499,-1060 -749,-1590 -47,-101 -177,-187 -280,-215 -112,-31 -262,-17 -361,47 -229,147 -281,403 -168,641z"/>
  <path fill="white" fill-rule="nonzero" d="M225052 97567c297,-530 618,-1047 961,-1548 140,-202 45,-529 -168,-641 -238,-126 -493,-48 -641,168 -344,501 -664,1017 -961,1547 -120,214 -59,522 168,642 221,117 513,60 641,-168z"/>
  <path fill="white" fill-rule="nonzero" d="M225036 90022c-46,602 -67,1206 -65,1809 1,245 215,480 469,469 253,-11 470,-206 469,-469 -3,-603 19,-1207 65,-1809 19,-245 -229,-479 -469,-468 -270,12 -449,206 -469,468z"/>
  <path fill="white" fill-rule="nonzero" d="M228181 82612c129,1051 303,2095 532,3130 53,240 344,402 577,327 252,-81 384,-319 327,-576 -210,-952 -383,-1939 -499,-2881 -30,-243 -194,-481 -468,-469 -229,10 -501,208 -469,469z"/>
  <path fill="white" fill-rule="nonzero" stroke="#010001" stroke-width="313" stroke-miterlimit="2.61313" d="M209861 86069c0,0 -2088,-1134 -2480,-387 -392,748 1115,1389 1757,1625 641,237 2379,-237 723,-1238z"/>
  <path fill="#010001" fill-rule="nonzero" d="M210315 94246l-3280 -12868c-360,-1413 678,-2798 2135,-2848l9158 -314c1044,-36 1980,641 2272,1645l3827 13157c424,1459 -668,2919 -2188,2923l-9704 25c-1047,3 -1962,-706 -2220,-1720z"/>
  <path fill="white" fill-rule="nonzero" d="M211508 92154c0,0 -97,326 -456,345 -360,20 -1327,-246 -1687,-606 -360,-360 -273,-703 -137,-717 0,0 -447,-145 -514,-574 -67,-430 277,-610 599,-642 0,0 -427,177 -845,-184 -417,-360 -212,-902 479,-993 0,0 -907,195 -1000,-466 -94,-662 447,-878 840,-946 394,-69 1341,-124 1604,42 263,166 300,395 171,596 -128,202 -511,516 -511,516 0,0 779,101 971,255 192,153 320,239 231,487 -90,248 -716,528 -716,528 0,0 -113,195 164,229 277,34 934,329 979,598 46,269 -85,500 -207,575 -122,75 -272,84 -122,280 151,196 312,452 157,677z"/>
  <path fill="none" fill-rule="nonzero" stroke="#010001" stroke-width="313" stroke-linecap="round" stroke-miterlimit="10" d="M209313 91126c0,0 -487,288 52,767 539,478 1513,636 1900,549 386,-86 353,-869 -39,-1136 -393,-266 -1721,-355 -1913,-180z"/>
  <path fill="none" fill-rule="nonzero" stroke="#010001" stroke-width="313" stroke-linecap="round" stroke-miterlimit="10" d="M209178 91155c0,0 -453,-134 -468,-603 -15,-469 457,-737 1435,-645 977,93 1446,368 1483,803 38,436 -261,670 -402,596"/>
  <path fill="none" fill-rule="nonzero" stroke="#010001" stroke-width="313" stroke-linecap="round" stroke-miterlimit="10" d="M208917 90042c0,0 -680,-108 -663,-704 17,-596 1139,-757 1742,-812 603,-54 1368,409 1188,848 -180,439 -727,464 -922,529"/>
  <path fill="none" fill-rule="nonzero" stroke="#010001" stroke-width="313" stroke-linecap="round" stroke-miterlimit="10" d="M208620 88852c0,0 -662,-77 -686,-714 -23,-638 1188,-927 2120,-880 931,47 347,1167 -3,1267"/>
  <path fill="#6248ED" fill-rule="nonzero" d="M241105 113692l3849 215c0,0 1083,-3625 -124,-7997 -1205,-4373 -15353,-4136 -15353,-4136 0,0 -303,8397 -196,8463 107,66 11824,3455 11824,3455z"/>
  <path fill="#F09001" fill-rule="nonzero" stroke="#010001" stroke-width="417" stroke-miterlimit="2.61313" d="M247544 104092l112 3288 -19516 -3953 -1269 -341c0,0 739,-14828 3033,-20936 2294,-6108 5477,-8780 7903,-9142 2425,-361 8168,5632 8168,5632l1865 19424 -296 6028z"/>
  <path fill="white" fill-rule="nonzero" d="M232098 81772c417,-644 834,-1288 1251,-1931 134,-207 49,-527 -168,-642 -233,-123 -499,-52 -641,168 -417,644 -834,1288 -1251,1931 -134,207 -49,527 168,642 233,123 498,52 641,-168z"/>
  <path fill="white" fill-rule="nonzero" d="M233782 84006c-75,635 -150,1271 -225,1907 -13,111 62,256 138,331 81,82 214,143 331,138 121,-6 247,-46 332,-138 89,-97 121,-201 137,-331 75,-636 150,-1272 225,-1907 13,-111 -62,-256 -138,-332 -81,-81 -214,-142 -331,-137 -121,5 -247,45 -331,137 -90,98 -122,201 -138,332z"/>
  <path fill="white" fill-rule="nonzero" d="M237385 79475c64,570 128,1140 191,1710 15,128 43,237 138,331 81,82 214,143 331,138 231,-11 498,-208 469,-469 -64,-570 -128,-1140 -191,-1710 -15,-128 -43,-237 -138,-331 -81,-82 -215,-143 -331,-138 -231,11 -498,208 -469,469z"/>
  <path fill="white" fill-rule="nonzero" d="M240724 87409c319,-697 662,-1384 1027,-2059 116,-215 60,-520 -169,-641 -218,-116 -516,-62 -641,168 -365,675 -707,1362 -1027,2059 -101,223 -70,515 169,641 206,109 532,70 641,-168z"/>
  <path fill="white" fill-rule="nonzero" d="M228883 96819c388,-402 794,-786 1217,-1150 87,-75 137,-220 137,-331 0,-115 -51,-253 -137,-332 -89,-82 -207,-143 -332,-137 -129,6 -233,52 -331,137 -423,365 -829,748 -1217,1150 -171,176 -189,489 0,663 184,169 481,188 663,0z"/>
  <path fill="white" fill-rule="nonzero" d="M230197 99322c200,567 399,1133 599,1700 81,231 324,409 576,328 228,-74 415,-330 328,-577 -200,-567 -400,-1134 -599,-1700 -82,-231 -324,-409 -577,-328 -228,74 -414,329 -327,577z"/>
  <path fill="white" fill-rule="nonzero" d="M236644 103750c570,-678 1174,-1326 1812,-1941 176,-171 184,-494 0,-663 -190,-174 -475,-182 -663,0 -637,615 -1242,1263 -1812,1941 -157,187 -197,482 0,663 174,159 495,200 663,0z"/>
  <path fill="white" fill-rule="nonzero" d="M240980 103420c19,525 56,1049 111,1572 14,128 44,238 138,332 81,81 214,142 331,137 232,-10 496,-208 469,-469 -55,-523 -92,-1047 -112,-1572 -9,-245 -209,-480 -468,-469 -247,11 -479,206 -469,469z"/>
  <path fill="white" fill-rule="nonzero" d="M227706 90776l3897 3545 1259 1012 3239 -4256c0,0 -2404,-789 -3577,-2197 -1173,-1408 -1803,-3438 -2033,-3678 -230,-240 -1295,-679 -2189,-946 -894,-268 -3046,-1087 -3779,-923 -734,165 -403,823 -194,1016 209,192 1811,786 1811,786 0,0 568,287 253,355 -316,68 -572,220 -572,220 0,0 -197,467 -348,575 -150,108 -292,282 -284,508 8,226 -17,392 -240,595 -224,203 -276,906 -276,906 0,0 -193,271 -114,790 79,519 631,1417 1234,1618 602,201 1051,111 1051,111l401 -513 461 476z"/>
  <path fill="none" fill-rule="nonzero" stroke="#010001" stroke-width="313" stroke-linecap="round" stroke-miterlimit="10" d="M227026 85393c0,0 -2915,-711 -2943,-1566 -36,-1102 3028,144 4888,612 1860,469 1657,1198 2876,3483 1220,2285 4254,3155 4254,3155"/>
  <line fill="none" fill-rule="nonzero" stroke="#010001" stroke-width="313" stroke-linecap="round" stroke-miterlimit="10" x1="236101" y1="91077" x2="232862" y2= "95333" />
  <path fill="none" fill-rule="nonzero" stroke="#010001" stroke-width="313" stroke-linecap="round" stroke-miterlimit="10" d="M232862 95333c0,0 -4064,-3205 -4859,-4205 -795,-1001 -1890,-1868 -2380,-1741"/>
  <path fill="none" fill-rule="nonzero" stroke="#010001" stroke-width="313" stroke-linecap="round" stroke-miterlimit="10" d="M227085 90227c0,0 6,851 -689,603 -710,-253 -1878,-753 -1911,-1930 -38,-1367 1786,-604 1786,-604"/>
  <path fill="none" fill-rule="nonzero" stroke="#010001" stroke-width="313" stroke-linecap="round" stroke-miterlimit="10" d="M226975 87030c0,0 -2391,-221 -2240,1199"/>
  <path fill="none" fill-rule="nonzero" stroke="#010001" stroke-width="313" stroke-linecap="round" stroke-miterlimit="10" d="M227552 86313c0,0 -1680,-386 -2036,-69 -357,316 -267,918 -267,918"/>
  <path fill="none" fill-rule="nonzero" stroke="#010001" stroke-width="313" stroke-linecap="round" stroke-miterlimit="10" d="M225721 86130c0,0 138,-1223 2752,-495"/>
  <path fill="#F09001" fill-rule="nonzero" d="M246452 92511c-374,-2080 -2617,-7313 -2617,-7313l-4325 -11856c0,0 8434,1338 15114,13217 6681,11880 899,19028 -4381,19522 -9696,908 -18890,-10140 -18890,-10140l4862 -7075 12246 4361 -2009 -716z"/>
  <path fill="#F09001" fill-rule="nonzero" stroke="#010001" stroke-width="417" stroke-miterlimit="2.61313" d="M231353 95941c0,0 1042,1250 2789,2872l5270 -8809 -3197 -1138 -4862 7075z"/>
  <line fill="none" fill-rule="nonzero" stroke="#010001" stroke-width="417" stroke-miterlimit="10" x1="232023" y1="94966" x2="235084" y2= "97239" />
  <line fill="none" fill-rule="nonzero" stroke="#010001" stroke-width="417" stroke-miterlimit="10" x1="232877" y1="93701" x2="236089" y2= "95559" />
  <line fill="none" fill-rule="nonzero" stroke="#010001" stroke-width="417" stroke-miterlimit="10" x1="233811" y1="92364" x2="237019" y2= "94005" />
  <line fill="none" fill-rule="nonzero" stroke="#010001" stroke-width="417" stroke-miterlimit="10" x1="234707" y1="91060" x2="237900" y2= "92531" />
  <line fill="none" fill-rule="nonzero" stroke="#010001" stroke-width="417" stroke-miterlimit="10" x1="235537" y1="89851" x2="238742" y2= "91125" />
  <path fill="none" fill-rule="nonzero" stroke="#010001" stroke-width="417" stroke-linecap="round" stroke-miterlimit="10" d="M239510 73342c0,0 8434,1338 15114,13217 6681,11880 899,19028 -4381,19522 -9696,908 -18890,-10140 -18890,-10140"/>
  <polyline fill="none" fill-rule="nonzero" stroke="#010001" stroke-width="417" stroke-linecap="round" stroke-miterlimit="10" points="231353,95941 236215,88866 248461,93227 "/>
  <path fill="none" fill-rule="nonzero" stroke="#010001" stroke-width="417" stroke-linecap="round" stroke-miterlimit="10" d="M243835 85198c0,0 2243,5233 2617,7313"/>
  <path fill="white" fill-rule="nonzero" d="M236990 97663c507,738 1028,1467 1561,2186 75,102 154,181 280,216 112,31 262,17 361,-47 195,-126 325,-431 169,-642 -534,-719 -1054,-1448 -1562,-2187 -139,-201 -418,-312 -641,-168 -201,130 -317,425 -168,642z"/>
  <path fill="white" fill-rule="nonzero" d="M239776 94398c434,22 869,45 1303,67 245,12 480,-225 469,-469 -12,-265 -206,-455 -469,-469 -434,-22 -869,-44 -1303,-66 -246,-13 -480,224 -469,469 12,264 206,455 469,468z"/>
  <path fill="white" fill-rule="nonzero" d="M241892 97918c550,274 1113,520 1686,740 107,42 267,9 362,-47 97,-57 190,-168 215,-280 27,-120 21,-255 -47,-361 -70,-108 -160,-169 -280,-215 -179,-69 -356,-141 -533,-215 38,16 75,32 112,48 -352,-149 -699,-309 -1042,-480 -219,-109 -518,-65 -641,169 -112,212 -66,524 168,641z"/>
  <path fill="white" fill-rule="nonzero" d="M243303 102652c566,415 1132,830 1699,1245 92,67 256,76 361,47 109,-30 227,-114 280,-216 129,-244 44,-486 -168,-641 -566,-415 -1133,-830 -1699,-1245 -93,-67 -256,-76 -361,-47 -109,30 -227,114 -281,215 -128,244 -43,486 169,642z"/>
  <path fill="white" fill-rule="nonzero" d="M247243 95813c602,-37 1203,-74 1804,-110 245,-15 481,-205 469,-469 -11,-241 -207,-485 -469,-469 -601,37 -1202,74 -1804,110 -244,15 -480,205 -469,469 11,241 207,485 469,469z"/>
  <path fill="white" fill-rule="nonzero" d="M248308 100145c587,190 1174,380 1760,571 234,75 522,-89 577,-328 58,-257 -78,-495 -328,-576 -586,-191 -1173,-381 -1760,-571 -233,-76 -522,88 -576,327 -59,257 77,496 327,577z"/>
  <path fill="white" fill-rule="nonzero" d="M250972 104387c469,-208 939,-416 1408,-624 100,-45 187,-179 215,-280 31,-113 17,-262 -47,-362 -64,-100 -161,-188 -280,-215 -131,-30 -240,-7 -361,47 -470,208 -939,417 -1408,625 -101,44 -188,179 -216,280 -31,112 -17,262 47,361 65,100 161,188 281,216 130,29 239,6 361,-48z"/>
  <path fill="white" fill-rule="nonzero" d="M255107 99907c300,-404 563,-834 785,-1285 56,-114 82,-236 47,-362 -30,-108 -114,-226 -215,-280 -212,-111 -526,-66 -641,168 -223,452 -485,882 -785,1286 -68,92 -76,256 -47,361 30,109 114,227 215,280 109,58 241,87 361,48 124,-40 204,-112 280,-216z"/>
  <path fill="white" fill-rule="nonzero" d="M252017 97094c404,-312 807,-623 1211,-935 101,-78 180,-151 216,-280 31,-112 17,-261 -48,-361 -64,-100 -160,-188 -280,-215 -113,-26 -264,-28 -361,47 -404,311 -807,623 -1211,934 -101,79 -180,152 -216,281 -30,112 -17,261 48,361 64,100 160,188 280,215 114,26 264,28 361,-47z"/>
  <path fill="white" fill-rule="nonzero" d="M250191 90848c72,312 134,627 186,943 13,81 26,162 38,242 5,38 10,75 16,112 15,102 -11,-86 3,25 21,162 40,325 56,487 12,128 44,238 137,332 81,81 215,142 331,137 234,-10 495,-207 469,-469 -68,-692 -177,-1380 -332,-2058 -54,-239 -343,-403 -576,-328 -251,81 -386,321 -328,577z"/>
  <path fill="white" fill-rule="nonzero" d="M254657 91782c202,569 372,1149 509,1737 56,239 342,403 577,327 249,-80 387,-320 327,-576 -137,-588 -307,-1168 -509,-1737 -82,-231 -323,-410 -576,-328 -228,74 -416,329 -328,577z"/>
  <path fill="white" fill-rule="nonzero" d="M247503 89304c135,-767 270,-1535 404,-2302 43,-241 -64,-517 -327,-577 -228,-52 -531,69 -577,327 -134,768 -269,1536 -404,2303 -42,241 65,517 328,577 228,52 531,-69 576,-328z"/>
  <path fill="white" fill-rule="nonzero" d="M250998 85629c312,737 625,1475 937,2213 43,100 181,188 280,215 112,31 262,17 361,-47 236,-152 271,-399 169,-641 -313,-738 -625,-1476 -938,-2214 -42,-100 -181,-188 -280,-215 -112,-31 -262,-17 -361,47 -236,152 -271,399 -168,642z"/>
  <path fill="white" fill-rule="nonzero" d="M247686 82806c298,602 595,1204 893,1806 109,220 439,298 641,168 226,-146 285,-406 168,-642 -297,-601 -595,-1203 -893,-1805 -109,-220 -438,-299 -641,-168 -225,145 -285,405 -168,641z"/>
  <path fill="white" fill-rule="nonzero" d="M244867 82548c87,-517 174,-1035 261,-1552 22,-127 21,-245 -47,-361 -57,-97 -168,-190 -280,-215 -227,-52 -533,68 -577,327 -87,517 -174,1034 -261,1552 -22,127 -21,245 47,361 57,97 168,190 280,215 227,52 533,-69 577,-327z"/>
  <path fill="white" fill-rule="nonzero" stroke="#010001" stroke-width="417" stroke-miterlimit="2.61313" d="M242519 73403c-556,-855 -1425,-1328 -2185,-1682 -245,-133 -521,-222 -820,-266 -298,-54 -588,-59 -862,-11 -834,90 -1740,454 -2542,1085 -1673,1315 -2252,3279 -1293,4385 773,892 1683,753 3126,54 1707,1890 3244,1763 4263,1167 1264,-739 1474,-2948 313,-4732z"/>
  <path fill="white" fill-rule="nonzero" stroke="#010001" stroke-width="417" stroke-miterlimit="2.61313" d="M242335 63452c-507,17 -969,195 -1342,481l-49 -1398c-76,-2216 -1730,-3974 -3677,-3907l-2927 100c-1946,67 -3476,1935 -3400,4151l156 4538c76,2216 1730,3974 3677,3907l1692 -58 84 2445c35,1002 883,1794 1885,1760l1162 -40c1002,-35 1794,-883 1760,-1885l-95 -2763 -5 -154 -95 -2762c-2,-56 -9,-110 -16,-164 387,250 852,389 1348,372 1288,-44 2296,-1115 2252,-2392 -44,-1276 -1123,-2275 -2410,-2231z"/>
  <path fill="none" fill-rule="nonzero" stroke="#010001" stroke-width="417" stroke-linecap="round" stroke-miterlimit="10" d="M241164 66112c0,0 -157,-1567 1462,-1448"/>
  <path fill="#010001" fill-rule="nonzero" d="M236849 64160c12,365 -273,670 -637,683 -365,12 -670,-273 -683,-637 -12,-365 273,-670 637,-683 365,-12 670,273 683,637z"/>
  <path fill="#010001" fill-rule="nonzero" d="M232525 64212c11,311 -233,572 -544,583 -311,10 -572,-233 -582,-544 -11,-311 233,-572 544,-583 311,-10 572,233 582,544z"/>
  <path fill="#ED80A5" fill-rule="nonzero" d="M239226 66508c31,906 -678,1666 -1584,1697 -906,31 -1666,-678 -1697,-1584 -31,-906 678,-1666 1584,-1697 906,-31 1666,678 1697,1584z"/>
  <path fill="#ED80A5" fill-rule="nonzero" d="M231526 65523c-99,3 -196,19 -288,45l59 1701c8,254 26,500 86,737 69,10 157,16 229,14 690,-24 1229,-602 1206,-1292 -24,-689 -602,-1229 -1292,-1205z"/>
  <path fill="#010001" fill-rule="nonzero" d="M237213 62934c-353,-171 -722,-308 -1103,-403 -82,-21 -169,26 -192,109 -22,80 27,171 109,192 355,89 700,212 1028,371 76,37 169,21 214,-56 40,-68 20,-177 -56,-213z"/>
  <path fill="#010001" fill-rule="nonzero" d="M232498 62925c-392,-1 -783,34 -1170,100 -83,15 -130,117 -109,193 24,88 109,123 192,109 359,-62 723,-90 1087,-89 84,0 156,-72 156,-156 0,-85 -72,-156 -156,-157z"/>
  <path fill="#010001" fill-rule="nonzero" d="M233760 63566c-181,605 -447,1177 -791,1707 -60,92 5,195 93,229 302,119 613,193 934,233 84,11 156,-79 156,-156 0,-93 -72,-146 -156,-156 -292,-37 -577,-115 -851,-222 31,77 62,153 94,230 357,-551 634,-1153 822,-1782 58,-193 -244,-276 -301,-83z"/>
  <path fill="#7C3AED" fill-rule="nonzero" d="M242529 56124c401,634 1240,823 1874,422 633,-401 822,-1240 421,-1874 -401,-634 -1240,-822 -1874,-421 -633,401 -822,1240 -421,1873z"/>
  <path fill="none" fill-rule="nonzero" stroke="#9B69F1" stroke-width="417" stroke-miterlimit="10" d="M254234 54836c0,0 -2069,-2521 -1343,-6051 726,-3530 4824,-5832 7634,-5112 2809,720 4111,867 5407,-1914 1297,-2782 4395,-6249 11312,-4758 6918,1491 6868,9869 6240,12509 -797,3353 -3087,5197 -6055,6835 -2969,1638 -7288,1690 -10114,-902 -2826,-2591 -4859,-2223 -5042,-18 -204,2448 -5953,2845 -8039,-589z"/>
  <path fill="#010001" fill-rule="nonzero" d="M242114 57040c-2458,-2315 -5908,-2387 -9048,-353 -3140,2035 -2960,5184 -2754,5627 122,262 288,457 627,514 297,27 794,-44 1675,-264 2539,-632 4080,-2902 4080,-2902 0,0 -203,406 731,2228 701,1367 2390,2168 3250,2494 249,-364 867,-875 1635,-931 551,-40 1188,243 1606,541 604,-1282 461,-4824 -1802,-6954z"/>
  <path fill="#010001" fill-rule="nonzero" d="M232841 67725c24,489 334,915 799,1076 457,158 987,0 1286,-378 175,-219 265,-488 259,-768 -4,-201 -317,-202 -313,0 10,466 -348,878 -824,894 -472,16 -872,-353 -894,-824 -10,-201 -322,-202 -313,0z"/>
  <polygon fill="white" fill-rule="nonzero" stroke="#7C3AED" stroke-width="417" stroke-miterlimit="2.61313" points="200025,133546 200320,142072 206872,142900 206995,133708 "/>
  <line fill="none" fill-rule="nonzero" stroke="#7C3AED" stroke-width="417" stroke-miterlimit="10" x1="201048" y1="133570" x2="201551" y2= "142275" />
  <line fill="none" fill-rule="nonzero" stroke="#7C3AED" stroke-width="417" stroke-miterlimit="10" x1="202562" y1="133608" x2="203064" y2= "142314" />
  <line fill="none" fill-rule="nonzero" stroke="#7C3AED" stroke-width="417" stroke-miterlimit="10" x1="203982" y1="133483" x2="204240" y2= "142362" />
  <line fill="none" fill-rule="nonzero" stroke="#7C3AED" stroke-width="417" stroke-miterlimit="10" x1="205286" y1="133578" x2="205551" y2= "142526" />
  <polygon fill="white" fill-rule="nonzero" stroke="#0F110E" stroke-width="417" stroke-miterlimit="2.61313" points="188085,153141 209061,152715 208344,140319 198516,141177 198310,146031 "/>
  <line fill="none" fill-rule="nonzero" stroke="#0F0F0F" stroke-width="417" stroke-linecap="round" stroke-miterlimit="10" x1="194134" y1="147779" x2="195482" y2= "150628" />
  <line fill="none" fill-rule="nonzero" stroke="#0F0F0F" stroke-width="417" stroke-linecap="round" stroke-miterlimit="10" x1="196043" y1="146686" x2="197391" y2= "149536" />
  <path fill="none" fill-rule="nonzero" stroke="#0F0F0F" stroke-width="417" stroke-linecap="round" stroke-miterlimit="10" d="M197493 146226c0,0 -5447,-2084 -4590,-3635 1379,-2493 4590,3635 4590,3635z"/>
  <line fill="none" fill-rule="nonzero" stroke="#0F0F0F" stroke-width="417" stroke-linecap="round" stroke-miterlimit="10" x1="196179" y1="141042" x2="197640" y2= "146319" />
  <path fill="#F09001" fill-rule="nonzero" d="M200620 146471c48,1397 1220,2491 2617,2443 1397,-48 2491,-1220 2443,-2617 -48,-1397 -1220,-2491 -2617,-2443 -1397,48 -2491,1220 -2443,2617z"/>
  <polygon fill="white" fill-rule="nonzero" stroke="#7C3AED" stroke-width="417" stroke-miterlimit="2.61313" points="184126,114896 178628,121420 182935,126427 189189,119690 "/>
  <line fill="none" fill-rule="nonzero" stroke="#7C3AED" stroke-width="417" stroke-miterlimit="10" x1="184869" y1="115600" x2="179405" y2= "122396" />
  <line fill="none" fill-rule="nonzero" stroke="#7C3AED" stroke-width="417" stroke-miterlimit="10" x1="185966" y1="116644" x2="180502" y2= "123440" />
  <line fill="none" fill-rule="nonzero" stroke="#7C3AED" stroke-width="417" stroke-miterlimit="10" x1="187104" y1="117503" x2="181342" y2= "124263" />
  <line fill="none" fill-rule="nonzero" stroke="#7C3AED" stroke-width="417" stroke-miterlimit="10" x1="188007" y1="118448" x2="182204" y2= "125264" />
  <polygon fill="white" fill-rule="nonzero" stroke="#0F110E" stroke-width="417" stroke-miterlimit="2.61313" points="162129,121429 177978,135177 185757,125500 177890,119547 174483,123010 "/>
  <line fill="none" fill-rule="nonzero" stroke="#0F0F0F" stroke-width="417" stroke-linecap="round" stroke-miterlimit="10" x1="170212" y1="121506" x2="169302" y2= "124524" />
  <line fill="none" fill-rule="nonzero" stroke="#0F0F0F" stroke-width="417" stroke-linecap="round" stroke-miterlimit="10" x1="172361" y1="121976" x2="171450" y2= "124994" />
  <path fill="none" fill-rule="nonzero" stroke="#0F0F0F" stroke-width="417" stroke-linecap="round" stroke-miterlimit="10" d="M173746 122606c0,0 -2644,-5198 -969,-5774 2695,-925 969,5774 969,5774z"/>
  <line fill="none" fill-rule="nonzero" stroke="#0F0F0F" stroke-width="417" stroke-linecap="round" stroke-miterlimit="10" x1="176246" y1="117879" x2="173792" y2= "122775" />
  <path fill="#F09001" fill-rule="nonzero" d="M175901 124885c-901,1069 -765,2666 304,3567 1069,901 2666,765 3567,-303 901,-1069 765,-2666 -303,-3568 -1069,-901 -2666,-765 -3568,304z"/>
  <path fill="#7C3AED" fill-rule="nonzero" d="M236793 106029l-3201 -1746c0,0 -10722,-5232 -13693,-6499 -2972,-1266 -10151,-4094 -12196,-4523 -2046,-430 -5043,-1353 -9504,1849 0,0 -7204,5432 -8023,6146 -820,713 -11133,10568 -11133,10568l13334 11506 4197 -4695 -1284 16025 16006 172 -243 -16154c0,0 -123,-463 598,-415 720,48 12052,375 12052,375 0,0 2040,58 2956,371 917,312 8578,2007 12251,911 3674,-1097 4885,-2791 5400,-3960 514,-1168 1013,-2659 1076,-3819 63,-1159 -8593,-6112 -8593,-6112z"/>
  <path fill="none" fill-rule="nonzero" stroke="#010001" stroke-width="417" stroke-linecap="round" stroke-miterlimit="10" d="M235810 105422c0,0 -25022,-13122 -31964,-12710 -6942,413 -24803,19112 -24803,19112"/>
  <polyline fill="none" fill-rule="nonzero" stroke="#010001" stroke-width="417" stroke-linecap="round" stroke-miterlimit="10" points="179043,111824 192377,123330 196593,118410 "/>
  <path fill="none" fill-rule="nonzero" stroke="#010001" stroke-width="417" stroke-linecap="round" stroke-miterlimit="10" d="M200536 105707c0,0 20565,11906 26397,13376 5673,1429 21026,4491 18167,-12174"/>
  <path fill="none" fill-rule="nonzero" stroke="#010001" stroke-width="417" stroke-linecap="round" stroke-miterlimit="10" d="M203125 107185c0,0 -5264,306 -5809,4011 -545,3705 -2026,23464 -2026,23464"/>
  <polyline fill="none" fill-rule="nonzero" stroke="#010001" stroke-width="417" stroke-linecap="round" stroke-miterlimit="10" points="195290,134660 211296,134832 210990,114529 "/>
  <line fill="none" fill-rule="nonzero" stroke="#010001" stroke-width="417" stroke-linecap="round" stroke-miterlimit="10" x1="211047" y1="118284" x2="225377" y2= "118581" />
  <polygon fill="#958E99" fill-rule="nonzero" stroke="#010001" stroke-width="417" stroke-miterlimit="2.61313" points="247035,174017 218703,174017 218703,118578 247035,118578 "/>
  <polygon fill="#BFBCBF" fill-rule="nonzero" stroke="#010001" stroke-width="417" stroke-miterlimit="2.61313" points="210749,174193 182417,174193 182417,152968 210749,152968 "/>
  <polygon fill="#BFBCBF" fill-rule="nonzero" stroke="#010001" stroke-width="417" stroke-miterlimit="2.61313" points="136441,174017 108109,174017 108109,112038 136441,112038 "/>
  <polygon fill="#958E99" fill-rule="nonzero" stroke="#010001" stroke-width="417" stroke-miterlimit="2.61313" points="174419,174017 146087,174017 146087,137923 174419,137923 "/>
  <polygon fill="#958E99" fill-rule="nonzero" stroke="#010001" stroke-width="417" stroke-miterlimit="2.61313" points="101026,174017 72694,174017 72694,127370 101026,127370 "/>
  <path fill="white" fill-rule="nonzero" d="M94754 70593l-3899 -3857c0,0 3851,-3835 4623,-4652 773,-818 1830,-1484 2679,-642 848,842 1607,3935 802,4816 -805,881 -4205,4335 -4205,4335z"/>
  <path fill="#7C3AED" fill-rule="nonzero" stroke="#010001" stroke-width="417" stroke-miterlimit="2.61313" d="M55553 56792c0,0 4241,-1387 18391,13801l16347 -4729 5839 6466c0,0 -13025,13140 -20717,14829 -4281,940 -9990,1005 -15145,-7836 -5155,-8841 -4715,-22531 -4715,-22531z"/>
  <path fill="#7C3AED" fill-rule="nonzero" stroke="#010001" stroke-width="417" stroke-miterlimit="2.61313" d="M93113 75210c1687,-1727 3017,-2880 3017,-2880l-5839 -6466 -3596 1242 6418 8104z"/>
  <path fill="none" fill-rule="nonzero" stroke="#010001" stroke-width="417" stroke-linecap="round" stroke-miterlimit="10" d="M70777 73156c0,0 2115,-2259 4636,-2988"/>
  <polygon fill="white" fill-rule="nonzero" stroke="#010001" stroke-width="417" stroke-miterlimit="2.61313" points="63079,153420 62605,162588 56784,163570 56826,153942 "/>
  <polygon fill="#7C3AED" fill-rule="nonzero" points="76202,174081 53889,173975 54446,160782 64912,161531 65211,166690 "/>
  <line fill="none" fill-rule="nonzero" stroke="#F09001" stroke-width="417" stroke-linecap="round" stroke-miterlimit="10" x1="69681" y1="168479" x2="68295" y2= "171532" />
  <line fill="none" fill-rule="nonzero" stroke="#F09001" stroke-width="417" stroke-linecap="round" stroke-miterlimit="10" x1="67633" y1="167349" x2="66247" y2= "170402" />
  <path fill="none" fill-rule="nonzero" stroke="#F09001" stroke-width="417" stroke-linecap="round" stroke-miterlimit="10" d="M66083 166883c0,0 5758,-2306 4821,-3941 -1507,-2629 -4821,3941 -4821,3941z"/>
  <line fill="none" fill-rule="nonzero" stroke="#F09001" stroke-width="417" stroke-linecap="round" stroke-miterlimit="10" x1="67395" y1="161349" x2="65928" y2= "166985" />
  <path fill="white" fill-rule="nonzero" d="M58254 173996c330,-610 509,-1311 477,-2053 -94,-2188 -1951,-3892 -4140,-3798 -155,7 -308,25 -458,49l-12 274c158,-28 318,-49 482,-56 2041,-88 3773,1502 3861,3542 32,743 -160,1444 -514,2041l304 1z"/>
  <polyline fill="none" fill-rule="nonzero" stroke="#010001" stroke-width="417" stroke-linecap="round" stroke-miterlimit="10" points="76202,174081 53889,173975 54446,160782 "/>
  <polygon fill="#010001" fill-rule="nonzero" points="51488,155653 65928,155295 68740,94188 48383,94149 "/>
  <line fill="none" fill-rule="nonzero" stroke="white" stroke-width="417" stroke-linecap="round" stroke-miterlimit="10" x1="48383" y1="94149" x2="51488" y2= "155653" />
  <line fill="none" fill-rule="nonzero" stroke="white" stroke-width="417" stroke-linecap="round" stroke-miterlimit="10" x1="51195" y1="149856" x2="66131" y2= "149856" />
  <polygon fill="white" fill-rule="nonzero" stroke="#010001" stroke-width="417" stroke-miterlimit="2.61313" points="30652,152823 28994,161852 34430,164152 36615,154776 "/>
  <polygon fill="#7C3AED" fill-rule="nonzero" points="13904,174004 36217,173898 37047,160868 26318,161373 24895,166612 "/>
  <line fill="none" fill-rule="nonzero" stroke="#F09001" stroke-width="417" stroke-linecap="round" stroke-miterlimit="10" x1="20425" y1="168401" x2="21811" y2= "171454" />
  <line fill="none" fill-rule="nonzero" stroke="#F09001" stroke-width="417" stroke-linecap="round" stroke-miterlimit="10" x1="22473" y1="167271" x2="23859" y2= "170324" />
  <path fill="none" fill-rule="nonzero" stroke="#F09001" stroke-width="417" stroke-linecap="round" stroke-miterlimit="10" d="M24022 166806c0,0 -5758,-2307 -4820,-3941 1507,-2629 4820,3941 4820,3941z"/>
  <line fill="none" fill-rule="nonzero" stroke="#F09001" stroke-width="417" stroke-linecap="round" stroke-miterlimit="10" x1="22710" y1="161272" x2="24178" y2= "166908" />
  <path fill="white" fill-rule="nonzero" d="M31852 173918c-330,-609 -509,-1311 -477,-2053 94,-2188 1951,-3892 4140,-3798 155,7 850,81 1000,106l-58 281c-158,-27 -790,-113 -954,-120 -2041,-87 -3773,1502 -3861,3543 -32,743 160,1443 514,2040l-304 1z"/>
  <polyline fill="none" fill-rule="nonzero" stroke="#010001" stroke-width="417" stroke-linecap="round" stroke-miterlimit="10" points="13904,174004 36217,173898 36951,160804 "/>
  <polygon fill="#010001" fill-rule="nonzero" points="37997,95257 27025,153990 41840,157202 58181,96189 "/>
  <polyline fill="none" fill-rule="nonzero" stroke="white" stroke-width="417" stroke-linecap="round" stroke-miterlimit="10" points="41840,157202 56720,101646 61136,101646 "/>
  <path fill="none" fill-rule="nonzero" stroke="white" stroke-width="417" stroke-linecap="round" stroke-miterlimit="10" d="M35925 106349c0,0 4646,-8 7399,-5363"/>
  <line fill="none" fill-rule="nonzero" stroke="white" stroke-width="417" stroke-linecap="round" stroke-miterlimit="10" x1="27902" y1="149293" x2="43104" y2= "152481" />
  <path fill="#7C3AED" fill-rule="nonzero" d="M67102 73312l2367 24407 -32650 0c0,0 -34,-18189 899,-26130 934,-7941 8798,-13897 12976,-13735 4179,161 7749,1021 7749,1021l8659 14437z"/>
  <polyline fill="none" fill-rule="nonzero" stroke="#010001" stroke-width="417" stroke-linecap="round" stroke-miterlimit="10" points="66112,71662 69469,97719 36819,97719 "/>
  <path fill="none" fill-rule="nonzero" stroke="#010001" stroke-width="417" stroke-linecap="round" stroke-miterlimit="10" d="M36819 97719c0,0 -34,-18189 899,-26130 934,-7941 8798,-13897 12976,-13735 4179,161 7749,1021 7749,1021"/>
  <path fill="#7C3AED" fill-rule="nonzero" stroke="#010001" stroke-width="417" stroke-miterlimit="2.61313" d="M36819 97719l32650 0 -664 -5157 -31958 0c-32,3069 -28,5157 -28,5157z"/>
  <path fill="white" fill-rule="nonzero" stroke="#010001" stroke-width="417" stroke-miterlimit="2.61313" d="M149622 38722c0,14638 -11867,26505 -26505,26505 -14638,0 -26505,-11867 -26505,-26505 0,-14638 11867,-26505 26505,-26505 14638,0 26505,11867 26505,26505z"/>
  <path fill="#7C3AED" fill-rule="nonzero" d="M139252 59749c-2657,-2827 -7829,-2122 -9251,2040l-947 2770c3769,-863 7232,-2530 10198,-4810z"/>
  <line fill="none" fill-rule="nonzero" stroke="#010001" stroke-width="198" stroke-miterlimit="10" x1="134609" y1="33735" x2="134609" y2= "34528" />
  <path fill="#010001" fill-rule="nonzero" d="M134708 37600l-198 0 0 -1536 198 0 0 1536zm0 3071l-198 0 0 -1536 198 0 0 1536zm0 3071l-198 0 0 -1535 198 0 0 1535zm0 3072l-198 0 0 -1536 198 0 0 1536zm0 3071l-198 0 0 -1536 198 0 0 1536zm0 3072l-198 0 0 -1536 198 0 0 1536zm0 3071l-198 0 0 -1536 198 0 0 1536zm0 3071l-198 0 0 -1535 198 0 0 1535zm0 3072l-198 0 0 -1536 198 0 0 1536z"/>
  <path fill="#BFBCBF" fill-rule="nonzero" d="M148895 32538l-14410 0c-344,0 -623,-279 -623,-624 0,-344 279,-623 623,-623l14080 0c120,412 230,827 330,1247z"/>
  <path fill="#BFBCBF" fill-rule="nonzero" d="M143591 29734l-9401 0c-181,0 -328,-147 -328,-328l0 -590c0,-181 147,-328 328,-328l9401 0c181,0 328,147 328,328l0 590c0,181 -147,328 -328,328z"/>
  <path fill="#F09001" fill-rule="nonzero" d="M112444 43129l16700 -2552c1399,9161 -4987,17851 -14148,19251 -3360,513 -6657,-22 -9554,-1356 -5419,-4853 -8830,-11903 -8830,-19750 0,-517 16,-1030 45,-1539 2104,-5515 7033,-9805 13236,-10753 1458,-223 2940,-254 4406,-92l-1855 16791z"/>
  <path fill="#7C3AED" fill-rule="nonzero" d="M117863 26392l-2028 12944 12707 -2386c0,0 -1869,-7255 -10679,-10558z"/>
  <polygon fill="#958E99" fill-rule="nonzero" stroke="#0F110E" stroke-width="417" stroke-miterlimit="2.61313" points="80303,77908 77329,74171 100906,55405 103607,59291 "/>
  <path fill="#F09001" fill-rule="nonzero" stroke="#0F110E" stroke-width="417" stroke-miterlimit="2.61313" d="M77692 73173l-31289 24651c-1374,1094 -1825,2815 -1006,3843l1029 1293c819,1029 2597,976 3971,-117l30830 -24958 -3535 -4712z"/>
  <path fill="#958E99" fill-rule="nonzero" stroke="#0F110E" stroke-width="417" stroke-miterlimit="2.61313" d="M151554 47396c1623,-5745 1511,-11772 -367,-17442 -3776,-11403 -14891,-19542 -26898,-19697 -6038,-77 -11870,1631 -16890,4996 -4971,3331 -8858,8306 -10926,13919 -1986,5390 -2384,11428 -969,17007 1525,6016 4842,11355 9582,15372 8973,7607 22452,8915 32689,3093 1396,-793 2736,-1666 3996,-2661 4639,-3723 8163,-8848 9783,-14587zm-14343 12052l0 0c-301,205 -610,399 -916,597 -25,17 -77,49 -123,76 -149,88 -299,175 -450,259 -1181,659 -2413,1228 -3681,1699 -549,204 -1104,384 -1664,553 -46,11 -447,124 -555,151 -372,93 -746,177 -1122,254 -1256,256 -2531,421 -3811,494 -172,10 -345,15 -517,24 -50,3 -163,6 -240,8 -235,2 -470,1 -705,-4 -689,-14 -1378,-55 -2064,-122 -617,-60 -1232,-142 -1844,-245 -305,-52 -610,-109 -914,-171 -169,-35 -338,-71 -506,-109 -47,-10 -194,-47 -296,-73 -1177,-315 -2334,-692 -3461,-1158 -579,-239 -1149,-499 -1709,-778 -156,-78 -311,-159 -466,-239 -35,-18 -103,-55 -164,-89 -285,-162 -569,-326 -849,-498 -1148,-704 -2243,-1496 -3271,-2366 -219,-186 -435,-375 -648,-568 -134,-121 -266,-243 -397,-367 -8,-7 -12,-11 -18,-16 -20,-21 -42,-44 -69,-72 -484,-500 -964,-1000 -1417,-1528 -890,-1037 -1673,-2142 -2416,-3288 -21,-32 -38,-59 -54,-83 -4,-7 -7,-12 -12,-21 -91,-155 -181,-312 -269,-469 -139,-251 -275,-504 -407,-759 -327,-633 -628,-1279 -902,-1936 -245,-586 -469,-1181 -671,-1783 -100,-299 -193,-601 -285,-903 -11,-35 -15,-50 -21,-66 -5,-18 -6,-25 -12,-48 -52,-203 -105,-405 -154,-609 -302,-1249 -511,-2519 -629,-3798 -28,-310 -52,-620 -69,-931 -8,-138 -15,-276 -21,-414 1,10 -6,-192 -10,-317 -1,-125 -3,-327 -3,-317 0,-138 2,-276 5,-414 7,-345 21,-689 41,-1033 78,-1308 251,-2609 518,-3891 29,-135 58,-270 88,-404 -2,9 46,-187 74,-309 33,-121 84,-316 82,-306 36,-134 74,-267 112,-399 194,-665 413,-1322 657,-1969 221,-585 462,-1162 723,-1729 117,-254 237,-505 362,-754 77,-156 158,-311 238,-466 23,-44 46,-88 70,-131 8,-16 19,-35 36,-66 651,-1134 1368,-2224 2172,-3256 396,-508 811,-1001 1243,-1479 121,-134 244,-266 367,-397 7,-8 11,-12 17,-18 20,-20 43,-42 71,-69 262,-253 520,-511 788,-758 1001,-926 2073,-1775 3203,-2539 272,-184 548,-360 825,-536 38,-24 64,-41 90,-57 129,-76 259,-151 389,-225 593,-333 1198,-645 1815,-932 1176,-548 2391,-999 3633,-1375 34,-6 546,-149 648,-174 305,-74 611,-144 918,-208 680,-141 1365,-256 2054,-343 617,-79 1238,-136 1859,-171 250,-15 500,-23 750,-31 71,-2 154,-4 195,-4 207,2 414,3 621,8 1275,32 2547,154 3804,366 585,98 1168,217 1746,357 69,18 151,39 190,51 166,47 333,91 499,139 332,97 662,200 990,309 1251,418 2472,928 3649,1527 99,50 460,248 506,270 263,151 526,302 785,461 572,350 1130,723 1673,1115 520,376 1025,770 1516,1183 247,207 491,420 730,636 107,97 213,195 319,293 37,34 58,53 81,73 19,21 43,47 84,89 975,1008 1899,2048 2728,3181 388,532 752,1079 1105,1635 24,38 41,64 57,90 76,129 151,259 225,389 194,344 380,692 558,1045 592,1169 1096,2383 1508,3627 86,259 165,520 244,781 -12,-25 144,535 171,643 157,642 291,1290 400,1942 103,616 184,1234 244,1855 29,310 54,620 72,931 11,172 20,345 27,517 2,50 7,215 10,321 13,1241 -67,2485 -231,3715 -82,615 -185,1227 -309,1835 -56,269 -116,538 -180,806 -11,44 -24,91 -30,115 -57,199 -109,400 -167,599 -368,1264 -829,2501 -1380,3698 -131,285 -267,567 -408,847 -48,95 -306,570 -314,592 -327,572 -668,1135 -1035,1683 -733,1095 -1548,2135 -2437,3109 -101,111 -203,221 -306,329 -22,22 -44,44 -76,75 -233,230 -467,460 -707,684 -513,477 -1045,932 -1591,1370 -521,411 -1054,808 -1602,1182z"/>
  <path fill="white" fill-rule="nonzero" d="M102858 64721c0,0 714,-1013 739,-1285 26,-271 -891,-1716 -1329,-2216 -437,-499 -1239,-1109 -1558,-1184 -319,-74 -426,564 -601,415 -176,-148 -751,-410 -955,-171 -204,239 -107,837 -107,837 0,0 -259,-45 -560,-30 -301,15 -430,272 -457,522 -27,250 14,273 -224,403 -239,129 -279,577 -291,1125 -11,549 421,3980 293,4134 -129,154 -2018,1430 -2422,1788 -404,357 -428,955 -299,877 129,-78 1870,-1367 3193,-1484 1324,-117 2296,-804 2593,-1202 297,-399 1985,-2529 1985,-2529z"/>
  <path fill="none" fill-rule="nonzero" stroke="#0F110E" stroke-width="417" stroke-miterlimit="10" d="M100001 66211c0,0 -1184,-3936 -1926,-4110 -742,-174 -607,864 -507,2778"/>
  <line fill="none" fill-rule="nonzero" stroke="#0F110E" stroke-width="417" stroke-miterlimit="10" x1="97568" y1="64879" x2="97847" y2= "67019" />
  <path fill="none" fill-rule="nonzero" stroke="#0F110E" stroke-width="417" stroke-miterlimit="10" d="M100968 65182c0,0 -1147,-2720 -1291,-2938 -144,-219 -585,-1186 -1190,-1157 -605,29 -474,1091 -474,1091"/>
  <path fill="none" fill-rule="nonzero" stroke="#0F110E" stroke-width="417" stroke-miterlimit="10" d="M102464 64118c0,0 -1895,-3619 -2674,-3894 -780,-276 -904,351 -677,1182"/>
  <path fill="none" fill-rule="nonzero" stroke="#0F110E" stroke-width="417" stroke-miterlimit="10" d="M100366 60734c0,0 -368,-1096 851,-507 811,392 2309,2659 2380,3209 71,551 -1816,2470 -2427,3415 -610,945 -1649,1655 -3233,1602 -781,-26 -2322,1202 -3376,2140"/>
  <path fill="white" fill-rule="nonzero" d="M46072 92562c0,0 13517,3823 16279,2921 2317,-755 -4413,-1755 -4413,-1755 0,0 4721,1173 5189,243 469,-931 -4982,-1685 -4982,-1685 0,0 5513,1019 5658,154 146,-865 -5505,-1560 -5505,-1560 0,0 5596,1096 5788,87 193,-1009 -5576,-1687 -5576,-1687 0,0 3633,-8 3448,-802 -184,-795 -7598,-287 -13287,-2216 -3257,-1105 -2599,6300 -2599,6300z"/>
  <path fill="#0F110E" fill-rule="nonzero" d="M58649 91103c1287,268 2622,484 3940,464 445,-6 1577,13 1625,-642 42,-558 -740,-833 -1147,-978 -839,-300 -1733,-457 -2611,-595 -590,-93 -1183,-173 -1777,-231 0,104 0,209 0,313 453,-5 906,-26 1358,-59 559,-41 1267,-47 1776,-315 483,-255 452,-686 -27,-911 -586,-277 -1351,-273 -1989,-338 -1570,-161 -3142,-264 -4714,-396 -1326,-112 -2651,-427 -3952,-696 -1279,-265 -2578,-509 -3835,-865 -194,-55 -277,246 -83,301 2182,618 4463,1041 6699,1411 1077,178 2162,218 3249,310 799,68 1598,143 2396,223 651,66 1413,63 2025,305 560,222 -143,469 -389,519 -362,73 -732,107 -1099,135 -471,36 -943,58 -1415,63 -205,3 -197,294 0,313 1447,140 2976,327 4347,829 237,87 729,241 840,508 174,420 -680,453 -913,470 -1401,101 -2854,-154 -4220,-439 -197,-41 -281,260 -84,301z"/>
  <path fill="#0F110E" fill-rule="nonzero" d="M58401 92481c1108,218 2227,405 3349,529 550,60 1201,173 1746,24 398,-110 732,-469 493,-884 -160,-277 -474,-446 -757,-565 -520,-218 -1085,-308 -1643,-365 -200,-20 -198,293 0,313 480,48 964,128 1417,297 238,88 517,213 675,421 239,315 -172,481 -437,512 -542,63 -1116,-21 -1654,-84 -673,-79 -1342,-184 -2009,-299 -366,-63 -732,-129 -1097,-200 -196,-39 -280,262 -83,301z"/>
  <path fill="#0F110E" fill-rule="nonzero" d="M58505 94018c597,126 1202,223 1807,305 764,104 1618,250 2383,87 258,-55 603,-178 679,-465 79,-297 -195,-537 -416,-680 -597,-387 -1360,-542 -2047,-675 -197,-37 -281,264 -83,302 584,112 1191,243 1728,507 148,72 303,154 419,273 60,62 105,137 100,180 -4,40 -56,95 -126,138 -122,74 -270,109 -409,132 -718,120 -1510,-12 -2224,-111 -578,-80 -1157,-173 -1728,-294 -196,-41 -280,260 -83,301z"/>
  <path fill="#0F110E" fill-rule="nonzero" d="M60705 94373c267,40 532,89 795,146 359,76 923,139 1211,388 77,66 109,126 61,243 -116,281 -558,357 -815,404 -943,171 -1954,65 -2897,-37 -1163,-125 -2269,-391 -3407,-653 -1721,-395 -3440,-799 -5155,-1222 -899,-223 -1798,-449 -2691,-695 -552,-152 -1131,-287 -1656,-520 -183,-80 -342,189 -158,270 1267,561 2716,821 4053,1154 1893,472 3793,917 5694,1354 1348,309 2637,584 4024,690 832,64 1758,134 2572,-108 288,-85 629,-235 734,-544 49,-148 39,-324 -46,-457 -197,-309 -750,-403 -1070,-484 -384,-96 -774,-172 -1166,-230 -196,-30 -281,271 -83,301z"/>
  <path fill="#7C3AED" fill-rule="nonzero" d="M41570 71080l9918 -15056c0,0 -3351,504 -7850,2851 -3341,1743 -7382,4632 -10804,8405 -1853,2042 -3568,4040 -4982,6872 -1319,2640 -2860,4700 -3487,6667 -2749,8629 868,11635 5094,12757 5121,1360 17466,1570 17466,1570l3769 -9963 -12267 -3863c0,0 1724,-6606 3143,-10240z"/>
  <path fill="none" fill-rule="nonzero" stroke="#010001" stroke-width="417" stroke-linecap="round" stroke-miterlimit="10" d="M51373 55946c0,0 -13062,1830 -22881,16935 -9202,14155 -4269,19257 852,20617 5120,1360 17466,1570 17466,1570"/>
  <polyline fill="none" fill-rule="nonzero" stroke="#010001" stroke-width="417" stroke-linecap="round" stroke-miterlimit="10" points="46925,95146 50694,85183 34866,80199 "/>
  <path fill="none" fill-rule="nonzero" stroke="#010001" stroke-width="417" stroke-linecap="round" stroke-miterlimit="10" d="M38427 81320c0,0 1724,-6606 3143,-10240"/>
  <path fill="#7C3AED" fill-rule="nonzero" stroke="#010001" stroke-width="417" stroke-miterlimit="2.61313" d="M50694 85183l-3431 -1080 -3789 10936c2050,83 3451,107 3451,107l3769 -9963z"/>
  <path fill="white" fill-rule="nonzero" stroke="#010001" stroke-width="417" stroke-miterlimit="2.61313" d="M57393 59315c0,1606 -1826,2908 -4078,2908 -2252,0 -4078,-1302 -4078,-2908 0,-1606 1826,-2908 4078,-2908 2252,0 4078,1302 4078,2908z"/>
  <polygon fill="#F09001" fill-rule="nonzero" points="54174,58137 52853,58137 50993,58137 51209,59724 52594,62040 53199,62040 53828,62040 54433,62040 55818,59724 56034,58137 "/>
  <path fill="#010001" fill-rule="nonzero" d="M52703 62237c555,0 1110,0 1666,0 268,0 268,-416 0,-416 -556,0 -1111,0 -1666,0 -269,0 -269,416 0,416z"/>
  <path fill="#7C3AED" fill-rule="nonzero" stroke="#010001" stroke-width="417" stroke-miterlimit="2.61313" d="M53280 54751c-3372,0 -6104,1846 -6104,4124 0,2277 2732,4123 6104,4123 3371,0 6104,-1846 6104,-4123 0,-2278 -2733,-4124 -6104,-4124zm0 6810l0 0c-2197,0 -3977,-1203 -3977,-2686 0,-1484 1780,-2687 3977,-2687 2196,0 3976,1203 3976,2687 0,1483 -1780,2686 -3976,2686z"/>
  <polygon fill="white" fill-rule="nonzero" stroke="#010001" stroke-width="417" stroke-miterlimit="2.61313" points="58510,56748 56162,54804 53719,53875 52995,53988 50397,54804 48255,56522 49960,61469 53280,58778 56599,61469 "/>
  <path fill="white" fill-rule="nonzero" stroke="#010001" stroke-width="417" stroke-miterlimit="2.61313" d="M57652 39800l-3134 0c-2084,0 -3788,1941 -3788,4313l0 4859c0,137 7,272 18,405 -34,144 -54,292 -54,445l0 2958 0 165 0 2957c0,1073 878,1952 1951,1952l1244 0c1073,0 1951,-879 1951,-1952l0 -2617 1812 0c2084,0 3789,-1941 3789,-4313l0 -4859c0,-2372 -1705,-4313 -3789,-4313z"/>
  <path fill="#010001" fill-rule="nonzero" d="M51101 46537c0,0 709,-4093 900,-3489 272,863 239,5638 1166,6058 1225,555 1676,-1542 4145,-1627 2469,-84 3889,1130 4129,2118 240,989 -1032,2398 -1808,3045 -972,812 -3793,643 -3793,643 0,0 -2443,148 -3465,-1294 -1064,-1500 -1274,-5454 -1274,-5454z"/>
  <path fill="#010001" fill-rule="nonzero" d="M55169 45701c0,390 316,706 706,706 391,0 707,-316 707,-706 0,-391 -316,-707 -707,-707 -390,0 -706,316 -706,707z"/>
  <path fill="#010001" fill-rule="nonzero" d="M59794 45597c0,333 270,603 603,603 333,0 603,-270 603,-603 0,-333 -270,-603 -603,-603 -333,0 -603,270 -603,603z"/>
  <path fill="white" fill-rule="nonzero" d="M59120 48488c0,0 -355,1034 -1106,1105 -750,71 -1339,-761 -1379,-1410l2485 305z"/>
  <path fill="#010001" fill-rule="nonzero" d="M54966 44864c198,-74 400,-136 605,-185 99,-23 199,-44 299,-62 54,-9 108,-17 162,-25 75,-11 -38,4 37,-5 31,-4 62,-7 94,-11 108,-11 213,-87 208,-208 -5,-103 -92,-221 -208,-208 -448,47 -886,145 -1308,302 -102,38 -182,143 -145,256 32,100 147,186 256,146z"/>
  <path fill="#010001" fill-rule="nonzero" d="M59539 44320c95,-7 190,-9 285,-6 41,1 81,3 122,7 27,2 54,4 81,7 8,1 67,9 26,3 182,26 360,72 532,134 103,37 233,-41 257,-145 26,-118 -36,-217 -146,-257 -368,-133 -767,-188 -1157,-160 -109,8 -214,90 -208,208 4,106 91,217 208,209z"/>
  <path fill="#010001" fill-rule="nonzero" d="M58218 44979c119,284 244,565 381,841 65,132 133,263 202,394 34,62 68,124 102,186 18,31 35,62 52,93 12,21 24,41 35,62 4,-1 2,-3 -5,-6 10,-35 19,-70 29,-106 -4,7 -9,14 -13,21 25,-25 50,-50 75,-75 -43,27 -152,37 -211,51 -78,18 -155,35 -233,52 -162,34 -324,66 -486,95 -111,19 -174,155 -146,256 32,117 145,165 256,146 265,-48 529,-102 791,-164 133,-31 279,-53 337,-196 59,-143 -27,-271 -95,-393 -248,-442 -473,-899 -669,-1367 -44,-104 -138,-178 -257,-146 -97,27 -189,152 -145,256z"/>
  <path fill="#010001" fill-rule="nonzero" d="M51551 47400l578 -3806c0,0 10529,1320 13942,-3794 3413,-5114 -174,-7139 -1909,-6850 -1736,289 -3765,2777 -3765,2777 0,0 1616,-2198 0,-2545 -1615,-347 -3399,1330 -4330,3066 0,0 -6939,-647 -9286,3552 -2346,4199 -611,7250 3680,11588l1143 -2794 -53 -1194z"/>
  <path fill="white" fill-rule="nonzero" stroke="#010001" stroke-width="417" stroke-miterlimit="2.61313" d="M51875 47689c0,1375 -1114,2489 -2488,2489 -1375,0 -2489,-1114 -2489,-2489 0,-1374 1114,-2488 2489,-2488 1374,0 2488,1114 2488,2488z"/>
  <path fill="#010001" fill-rule="nonzero" d="M50798 47806c39,-599 -246,-1275 -812,-1534 -305,-140 -645,-166 -976,-132 -92,10 -172,72 -172,172 0,86 79,182 172,172 149,-15 299,-20 448,-5 48,5 89,11 156,27 58,13 114,31 170,51 9,4 19,8 28,12 -35,-15 10,4 14,6 22,11 44,22 65,33 45,25 88,53 130,83 -34,-25 21,18 27,24 17,14 33,29 49,44 33,33 64,68 94,104 -30,-36 11,16 17,25 12,17 23,34 34,51 24,38 45,76 65,116 9,19 18,39 27,58 11,23 -15,-40 -2,-4 4,9 8,18 11,27 15,40 29,81 41,122 21,69 37,139 49,210 3,15 5,31 8,46 7,48 -4,-39 1,7 3,30 6,59 8,89 5,65 9,131 4,196 -6,93 84,172 172,172 98,0 166,-79 172,-172z"/>
  <path fill="#0F110E" fill-rule="nonzero" d="M2620 174674c2533,0 5066,0 7600,0 6832,0 13663,0 20495,0 10129,0 20258,0 30387,0 12358,0 24716,0 37074,0 13488,0 26976,0 40464,0 13707,0 27415,0 41122,0 12694,0 25388,0 38082,0 10766,0 21531,0 32297,0 7740,0 15480,0 23220,0 3657,0 7318,53 10975,0 160,-2 320,0 480,0 670,0 671,-1041 0,-1041 -2533,0 -5067,0 -7600,0 -6832,0 -13664,0 -20495,0 -10129,0 -20258,0 -30387,0 -12358,0 -24716,0 -37074,0 -13488,0 -26976,0 -40463,0 -13708,0 -27416,0 -41123,0 -12694,0 -25388,0 -38082,0 -10765,0 -21531,0 -32297,0 -7740,0 -15480,0 -23220,0 -3657,0 -7318,-53 -10975,0 -160,2 -320,0 -480,0 -670,0 -671,1041 0,1041z"/>
 </g>
</svg>
